<?xml version="1.0" encoding="utf-8" standalone="no"?>
<!DOCTYPE svg PUBLIC "-//W3C//DTD SVG 1.1//EN"
  "http://www.w3.org/Graphics/SVG/1.1/DTD/svg11.dtd">
<svg xmlns:xlink="http://www.w3.org/1999/xlink" width="584.39952pt" height="188.39952pt" viewBox="0 0 584.39952 188.39952" xmlns="http://www.w3.org/2000/svg" version="1.1">
 <metadata>
  <rdf:RDF xmlns:dc="http://purl.org/dc/elements/1.1/" xmlns:cc="http://creativecommons.org/ns#" xmlns:rdf="http://www.w3.org/1999/02/22-rdf-syntax-ns#">
   <cc:Work>
    <dc:type rdf:resource="http://purl.org/dc/dcmitype/StillImage"/>
    <dc:date>2024-11-11T12:04:37.253271</dc:date>
    <dc:format>image/svg+xml</dc:format>
    <dc:creator>
     <cc:Agent>
      <dc:title>Matplotlib v3.9.2, https://matplotlib.org/</dc:title>
     </cc:Agent>
    </dc:creator>
   </cc:Work>
  </rdf:RDF>
 </metadata>
 <defs>
  <style type="text/css">*{stroke-linejoin: round; stroke-linecap: butt}</style>
 </defs>
 <g id="figure_1">
  <g id="patch_1">
   <path d="M 0 188.39952 
L 584.39952 188.39952 
L 584.39952 0 
L 0 0 
z
" style="fill: #ffffff"/>
  </g>
  <g id="axes_1">
   <g id="patch_2">
    <path d="M 42.216875 156.823582 
L 577.19952 156.823582 
L 577.19952 7.2 
L 42.216875 7.2 
z
" style="fill: #ffffff"/>
   </g>
   <g id="PolyCollection_1">
    <defs>
     <path id="m3289b4a9d1" d="M 133.731305 -43.666282 
L 129.029993 -43.666282 
L 128.087454 -44.708919 
L 126.881301 -45.751556 
L 125.384221 -46.794194 
L 123.582733 -47.836831 
L 121.482104 -48.879469 
L 119.10975 -49.922106 
L 116.516086 -50.964743 
L 113.772029 -52.007381 
L 110.962842 -53.050018 
L 108.178674 -54.092655 
L 105.502903 -55.135293 
L 102.99998 -56.17793 
L 100.70488 -57.220567 
L 98.616206 -58.263205 
L 96.694565 -59.305842 
L 94.867019 -60.348479 
L 93.037366 -61.391117 
L 91.100957 -62.433754 
L 88.961866 -63.476391 
L 86.549752 -64.519029 
L 83.833678 -65.561666 
L 80.830632 -66.604304 
L 77.607327 -67.646941 
L 74.274941 -68.689578 
L 70.977647 -69.732216 
L 67.876712 -70.774853 
L 65.132661 -71.81749 
L 62.888131 -72.860128 
L 61.253845 -73.902765 
L 60.299389 -74.945402 
L 60.04963 -75.98804 
L 60.486587 -77.030677 
L 61.555793 -78.073314 
L 63.175627 -79.115952 
L 65.247926 -80.158589 
L 67.668338 -81.201226 
L 70.335217 -82.243864 
L 73.156364 -83.286501 
L 76.05336 -84.329139 
L 78.963571 -85.371776 
L 81.840174 -86.414413 
L 84.65062 -87.457051 
L 87.374042 -88.499688 
L 89.998079 -89.542325 
L 92.515603 -90.584963 
L 94.921786 -91.6276 
L 97.211858 -92.670237 
L 99.379827 -93.712875 
L 101.418211 -94.755512 
L 103.318707 -95.798149 
L 105.073511 -96.840787 
L 106.676928 -97.883424 
L 108.126866 -98.926061 
L 109.425877 -99.968699 
L 110.581524 -101.011336 
L 111.606018 -102.053974 
L 112.5152 -103.096611 
L 113.327068 -104.139248 
L 114.060113 -105.181886 
L 114.731702 -106.224523 
L 115.356755 -107.26716 
L 115.946884 -108.309798 
L 116.510053 -109.352435 
L 117.050773 -110.395072 
L 117.570742 -111.43771 
L 118.069737 -112.480347 
L 118.546593 -113.522984 
L 119.000023 -114.565622 
L 119.42917 -115.608259 
L 119.833801 -116.650896 
L 120.214218 -117.693534 
L 120.571019 -118.736171 
L 120.904929 -119.778809 
L 121.216842 -120.821446 
L 121.508204 -121.864083 
L 121.781656 -122.906721 
L 122.041787 -123.949358 
L 122.295731 -124.991995 
L 122.553329 -126.034633 
L 122.826672 -127.07727 
L 123.128973 -128.119907 
L 123.472898 -129.162545 
L 123.868643 -130.205182 
L 124.322128 -131.247819 
L 124.833685 -132.290457 
L 125.39751 -133.333094 
L 126.002019 -134.375731 
L 126.631033 -135.418369 
L 127.265588 -136.461006 
L 127.886038 -137.503644 
L 128.474116 -138.546281 
L 129.014629 -139.588918 
L 129.496595 -140.631556 
L 129.913725 -141.674193 
L 130.264293 -142.71683 
L 130.550518 -143.759468 
L 130.777634 -144.802105 
L 130.952836 -145.844742 
L 131.084275 -146.88738 
L 131.677024 -146.88738 
L 131.677024 -146.88738 
L 131.808462 -145.844742 
L 131.983665 -144.802105 
L 132.21078 -143.759468 
L 132.497005 -142.71683 
L 132.847573 -141.674193 
L 133.264703 -140.631556 
L 133.746669 -139.588918 
L 134.287183 -138.546281 
L 134.87526 -137.503644 
L 135.495711 -136.461006 
L 136.130265 -135.418369 
L 136.759279 -134.375731 
L 137.363788 -133.333094 
L 137.927613 -132.290457 
L 138.43917 -131.247819 
L 138.892655 -130.205182 
L 139.2884 -129.162545 
L 139.632325 -128.119907 
L 139.934626 -127.07727 
L 140.20797 -126.034633 
L 140.465568 -124.991995 
L 140.719512 -123.949358 
L 140.979643 -122.906721 
L 141.253094 -121.864083 
L 141.544456 -120.821446 
L 141.85637 -119.778809 
L 142.190279 -118.736171 
L 142.547081 -117.693534 
L 142.927497 -116.650896 
L 143.332128 -115.608259 
L 143.761276 -114.565622 
L 144.214706 -113.522984 
L 144.691561 -112.480347 
L 145.190557 -111.43771 
L 145.710525 -110.395072 
L 146.251246 -109.352435 
L 146.814414 -108.309798 
L 147.404543 -107.26716 
L 148.029597 -106.224523 
L 148.701185 -105.181886 
L 149.43423 -104.139248 
L 150.246099 -103.096611 
L 151.15528 -102.053974 
L 152.179774 -101.011336 
L 153.335422 -99.968699 
L 154.634432 -98.926061 
L 156.08437 -97.883424 
L 157.687787 -96.840787 
L 159.442591 -95.798149 
L 161.343087 -94.755512 
L 163.381472 -93.712875 
L 165.54944 -92.670237 
L 167.839512 -91.6276 
L 170.245695 -90.584963 
L 172.76322 -89.542325 
L 175.387257 -88.499688 
L 178.110679 -87.457051 
L 180.921125 -86.414413 
L 183.797727 -85.371776 
L 186.707938 -84.329139 
L 189.604934 -83.286501 
L 192.426081 -82.243864 
L 195.09296 -81.201226 
L 197.513373 -80.158589 
L 199.585672 -79.115952 
L 201.205505 -78.073314 
L 202.274711 -77.030677 
L 202.711669 -75.98804 
L 202.46191 -74.945402 
L 201.507454 -73.902765 
L 199.873167 -72.860128 
L 197.628637 -71.81749 
L 194.884586 -70.774853 
L 191.783652 -69.732216 
L 188.486357 -68.689578 
L 185.153972 -67.646941 
L 181.930666 -66.604304 
L 178.927621 -65.561666 
L 176.211546 -64.519029 
L 173.799432 -63.476391 
L 171.660341 -62.433754 
L 169.723932 -61.391117 
L 167.894279 -60.348479 
L 166.066733 -59.305842 
L 164.145092 -58.263205 
L 162.056418 -57.220567 
L 159.761318 -56.17793 
L 157.258395 -55.135293 
L 154.582624 -54.092655 
L 151.798457 -53.050018 
L 148.989269 -52.007381 
L 146.245213 -50.964743 
L 143.651549 -49.922106 
L 141.279195 -48.879469 
L 139.178565 -47.836831 
L 137.377077 -46.794194 
L 135.879997 -45.751556 
L 134.673844 -44.708919 
L 133.731305 -43.666282 
z
" style="stroke: #424242; stroke-width: 0.8"/>
    </defs>
    <g clip-path="url(#pba433b9f17)">
     <use xlink:href="#m3289b4a9d1" x="0" y="188.39952" style="fill: #3d78a5; stroke: #424242; stroke-width: 0.8"/>
    </g>
   </g>
   <g id="PolyCollection_2">
    <defs>
     <path id="m4d75ad5c49" d="M 313.783325 -38.377009 
L 305.63307 -38.377009 
L 304.059124 -39.750963 
L 302.044276 -41.124917 
L 299.530425 -42.498871 
L 296.474428 -43.872825 
L 292.855965 -45.246779 
L 288.68482 -46.620733 
L 284.006448 -47.994687 
L 278.904723 -49.368641 
L 273.501021 -50.742595 
L 267.949216 -52.116549 
L 262.426746 -53.490503 
L 257.122542 -54.864457 
L 252.223112 -56.23841 
L 247.898419 -57.612364 
L 244.289269 -58.986318 
L 241.497659 -60.360272 
L 239.581107 -61.734226 
L 238.551346 -63.10818 
L 238.377178 -64.482134 
L 238.990724 -65.856088 
L 240.296006 -67.230042 
L 242.17867 -68.603996 
L 244.515723 -69.97795 
L 247.184401 -71.351904 
L 250.069531 -72.725858 
L 253.06905 -74.099811 
L 256.097562 -75.473765 
L 259.088005 -76.847719 
L 261.991618 -78.221673 
L 264.776492 -79.595627 
L 267.425067 -80.969581 
L 269.930974 -82.343535 
L 272.295646 -83.717489 
L 274.525077 -85.091443 
L 276.627055 -86.465397 
L 278.609081 -87.839351 
L 280.477017 -89.213305 
L 282.234449 -90.587259 
L 283.882598 -91.961213 
L 285.420621 -93.335166 
L 286.846132 -94.70912 
L 288.155843 -96.083074 
L 289.346256 -97.457028 
L 290.414426 -98.830982 
L 291.358771 -100.204936 
L 292.179942 -101.57889 
L 292.881667 -102.952844 
L 293.471462 -104.326798 
L 293.96105 -105.700752 
L 294.366344 -107.074706 
L 294.706877 -108.44866 
L 295.004672 -109.822614 
L 295.282631 -111.196567 
L 295.562638 -112.570521 
L 295.863635 -113.944475 
L 296.199948 -115.318429 
L 296.580125 -116.692383 
L 297.006436 -118.066337 
L 297.475106 -119.440291 
L 297.97719 -120.814245 
L 298.499935 -122.188199 
L 299.028394 -123.562153 
L 299.547036 -124.936107 
L 300.041162 -126.310061 
L 300.497978 -127.684015 
L 300.907269 -129.057969 
L 301.261727 -130.431922 
L 301.557007 -131.805876 
L 301.791639 -133.17983 
L 301.966901 -134.553784 
L 302.086734 -135.927738 
L 302.157703 -137.301692 
L 302.188975 -138.675646 
L 302.192226 -140.0496 
L 302.181382 -141.423554 
L 302.172107 -142.797508 
L 302.181003 -144.171462 
L 302.224527 -145.545416 
L 302.317725 -146.91937 
L 302.472917 -148.293323 
L 302.698502 -149.667277 
L 302.998065 -151.041231 
L 303.369929 -152.415185 
L 303.807226 -153.789139 
L 304.298495 -155.163093 
L 304.828737 -156.537047 
L 305.380783 -157.911001 
L 305.936807 -159.284955 
L 306.479787 -160.658909 
L 306.994755 -162.032863 
L 307.469716 -163.406817 
L 307.896174 -164.780771 
L 308.269252 -166.154725 
L 308.58747 -167.528678 
L 308.852256 -168.902632 
L 309.067285 -170.276586 
L 309.237774 -171.65054 
L 309.369787 -173.024494 
L 309.469637 -174.398448 
L 309.946758 -174.398448 
L 309.946758 -174.398448 
L 310.046608 -173.024494 
L 310.178621 -171.65054 
L 310.34911 -170.276586 
L 310.564139 -168.902632 
L 310.828925 -167.528678 
L 311.147143 -166.154725 
L 311.520221 -164.780771 
L 311.946679 -163.406817 
L 312.42164 -162.032863 
L 312.936608 -160.658909 
L 313.479588 -159.284955 
L 314.035612 -157.911001 
L 314.587658 -156.537047 
L 315.1179 -155.163093 
L 315.609169 -153.789139 
L 316.046466 -152.415185 
L 316.41833 -151.041231 
L 316.717893 -149.667277 
L 316.943478 -148.293323 
L 317.09867 -146.91937 
L 317.191868 -145.545416 
L 317.235392 -144.171462 
L 317.244288 -142.797508 
L 317.235013 -141.423554 
L 317.224169 -140.0496 
L 317.22742 -138.675646 
L 317.258692 -137.301692 
L 317.329661 -135.927738 
L 317.449494 -134.553784 
L 317.624756 -133.17983 
L 317.859388 -131.805876 
L 318.154668 -130.431922 
L 318.509126 -129.057969 
L 318.918417 -127.684015 
L 319.375233 -126.310061 
L 319.869359 -124.936107 
L 320.388001 -123.562153 
L 320.91646 -122.188199 
L 321.439205 -120.814245 
L 321.941289 -119.440291 
L 322.409959 -118.066337 
L 322.83627 -116.692383 
L 323.216447 -115.318429 
L 323.55276 -113.944475 
L 323.853757 -112.570521 
L 324.133764 -111.196567 
L 324.411723 -109.822614 
L 324.709518 -108.44866 
L 325.050051 -107.074706 
L 325.455345 -105.700752 
L 325.944933 -104.326798 
L 326.534728 -102.952844 
L 327.236453 -101.57889 
L 328.057624 -100.204936 
L 329.001969 -98.830982 
L 330.070139 -97.457028 
L 331.260552 -96.083074 
L 332.570263 -94.70912 
L 333.995774 -93.335166 
L 335.533797 -91.961213 
L 337.181946 -90.587259 
L 338.939378 -89.213305 
L 340.807314 -87.839351 
L 342.78934 -86.465397 
L 344.891318 -85.091443 
L 347.120749 -83.717489 
L 349.485421 -82.343535 
L 351.991328 -80.969581 
L 354.639903 -79.595627 
L 357.424777 -78.221673 
L 360.32839 -76.847719 
L 363.318833 -75.473765 
L 366.347345 -74.099811 
L 369.346864 -72.725858 
L 372.231994 -71.351904 
L 374.900672 -69.97795 
L 377.237725 -68.603996 
L 379.120389 -67.230042 
L 380.425671 -65.856088 
L 381.039217 -64.482134 
L 380.865049 -63.10818 
L 379.835288 -61.734226 
L 377.918736 -60.360272 
L 375.127126 -58.986318 
L 371.517976 -57.612364 
L 367.193283 -56.23841 
L 362.293853 -54.864457 
L 356.989649 -53.490503 
L 351.467179 -52.116549 
L 345.915374 -50.742595 
L 340.511672 -49.368641 
L 335.409947 -47.994687 
L 330.731575 -46.620733 
L 326.56043 -45.246779 
L 322.941967 -43.872825 
L 319.88597 -42.498871 
L 317.372119 -41.124917 
L 315.357271 -39.750963 
L 313.783325 -38.377009 
z
" style="stroke: #424242; stroke-width: 0.8"/>
    </defs>
    <g clip-path="url(#pba433b9f17)">
     <use xlink:href="#m4d75ad5c49" x="0" y="188.39952" style="fill: #be631d; stroke: #424242; stroke-width: 0.8"/>
    </g>
   </g>
   <g id="PolyCollection_3">
    <defs>
     <path id="mbf0f3ba558" d="M 488.830147 -53.4493 
L 487.241344 -53.4493 
L 486.493952 -53.892459 
L 485.254849 -54.335618 
L 483.337725 -54.778776 
L 480.536451 -55.221935 
L 476.626277 -55.665094 
L 471.373999 -56.108253 
L 464.587151 -56.551412 
L 456.228854 -56.994571 
L 446.587564 -57.437729 
L 436.431227 -57.880888 
L 427.032438 -58.324047 
L 419.969607 -58.767206 
L 416.704727 -59.210365 
L 418.074041 -59.653524 
L 423.921635 -60.096683 
L 433.078611 -60.539841 
L 443.731696 -60.983 
L 454.020996 -61.426159 
L 462.589844 -61.869318 
L 468.857226 -62.312477 
L 472.954003 -62.755636 
L 475.435818 -63.198794 
L 476.955741 -63.641953 
L 478.035656 -64.085112 
L 478.979799 -64.528271 
L 479.898362 -64.97143 
L 480.783478 -65.414589 
L 481.590303 -65.857748 
L 482.295319 -66.300906 
L 482.919047 -66.744065 
L 483.51309 -67.187224 
L 484.125474 -67.630383 
L 484.76826 -68.073542 
L 485.408426 -68.516701 
L 485.986623 -68.959859 
L 486.449929 -69.403018 
L 486.777632 -69.846177 
L 486.986901 -70.289336 
L 487.119602 -70.732495 
L 487.221444 -71.175654 
L 487.325116 -71.618813 
L 487.443348 -72.061971 
L 487.57133 -72.50513 
L 487.694366 -72.948289 
L 487.796065 -73.391448 
L 487.863959 -73.834607 
L 487.8918 -74.277766 
L 487.879773 -74.720924 
L 487.834322 -75.164083 
L 487.768124 -75.607242 
L 487.699105 -76.050401 
L 487.647021 -76.49356 
L 487.627741 -76.936719 
L 487.647659 -77.379878 
L 487.70152 -77.823036 
L 487.775203 -78.266195 
L 487.851917 -78.709354 
L 487.918356 -79.152513 
L 487.967899 -79.595672 
L 488.000256 -80.038831 
L 488.018944 -80.481989 
L 488.028547 -80.925148 
L 488.032954 -81.368307 
L 488.034765 -81.811466 
L 488.035429 -82.254625 
L 488.035633 -82.697784 
L 488.035629 -83.140943 
L 488.0354 -83.584101 
L 488.034622 -84.02726 
L 488.032395 -84.470419 
L 488.026689 -84.913578 
L 488.013578 -85.356737 
L 487.986615 -85.799896 
L 487.937142 -86.243054 
L 487.856542 -86.686213 
L 487.740822 -87.129372 
L 487.596217 -87.572531 
L 487.442573 -88.01569 
L 487.310808 -88.458849 
L 487.233382 -88.902008 
L 487.231333 -89.345166 
L 487.304756 -89.788325 
L 487.432316 -90.231484 
L 487.579937 -90.674643 
L 487.71334 -91.117802 
L 487.807857 -91.560961 
L 487.85221 -92.004119 
L 487.847472 -92.447278 
L 487.804327 -92.890437 
L 487.740435 -93.333596 
L 487.677359 -93.776755 
L 487.63585 -94.219914 
L 487.629948 -94.663073 
L 487.662514 -95.106231 
L 487.724922 -95.54939 
L 487.801439 -95.992549 
L 487.875882 -96.435708 
L 487.937027 -96.878867 
L 487.980572 -97.322026 
L 488.090919 -97.322026 
L 488.090919 -97.322026 
L 488.134465 -96.878867 
L 488.19561 -96.435708 
L 488.270053 -95.992549 
L 488.34657 -95.54939 
L 488.408978 -95.106231 
L 488.441544 -94.663073 
L 488.435642 -94.219914 
L 488.394132 -93.776755 
L 488.331057 -93.333596 
L 488.267165 -92.890437 
L 488.22402 -92.447278 
L 488.219282 -92.004119 
L 488.263635 -91.560961 
L 488.358152 -91.117802 
L 488.491555 -90.674643 
L 488.639176 -90.231484 
L 488.766736 -89.788325 
L 488.840159 -89.345166 
L 488.83811 -88.902008 
L 488.760684 -88.458849 
L 488.628919 -88.01569 
L 488.475275 -87.572531 
L 488.33067 -87.129372 
L 488.214949 -86.686213 
L 488.13435 -86.243054 
L 488.084876 -85.799896 
L 488.057913 -85.356737 
L 488.044803 -84.913578 
L 488.039097 -84.470419 
L 488.03687 -84.02726 
L 488.036092 -83.584101 
L 488.035863 -83.140943 
L 488.035859 -82.697784 
L 488.036062 -82.254625 
L 488.036727 -81.811466 
L 488.038538 -81.368307 
L 488.042945 -80.925148 
L 488.052548 -80.481989 
L 488.071235 -80.038831 
L 488.103592 -79.595672 
L 488.153136 -79.152513 
L 488.219575 -78.709354 
L 488.296289 -78.266195 
L 488.369971 -77.823036 
L 488.423832 -77.379878 
L 488.44375 -76.936719 
L 488.424471 -76.49356 
L 488.372387 -76.050401 
L 488.303367 -75.607242 
L 488.23717 -75.164083 
L 488.191719 -74.720924 
L 488.179692 -74.277766 
L 488.207533 -73.834607 
L 488.275427 -73.391448 
L 488.377126 -72.948289 
L 488.500162 -72.50513 
L 488.628144 -72.061971 
L 488.746375 -71.618813 
L 488.850048 -71.175654 
L 488.951889 -70.732495 
L 489.084591 -70.289336 
L 489.293859 -69.846177 
L 489.621563 -69.403018 
L 490.084868 -68.959859 
L 490.663066 -68.516701 
L 491.303232 -68.073542 
L 491.946017 -67.630383 
L 492.558401 -67.187224 
L 493.152445 -66.744065 
L 493.776173 -66.300906 
L 494.481189 -65.857748 
L 495.288013 -65.414589 
L 496.17313 -64.97143 
L 497.091693 -64.528271 
L 498.035836 -64.085112 
L 499.115751 -63.641953 
L 500.635674 -63.198794 
L 503.117489 -62.755636 
L 507.214266 -62.312477 
L 513.481648 -61.869318 
L 522.050496 -61.426159 
L 532.339796 -60.983 
L 542.992881 -60.539841 
L 552.149857 -60.096683 
L 557.99745 -59.653524 
L 559.366765 -59.210365 
L 556.101884 -58.767206 
L 549.039053 -58.324047 
L 539.640265 -57.880888 
L 529.483928 -57.437729 
L 519.842637 -56.994571 
L 511.484341 -56.551412 
L 504.697493 -56.108253 
L 499.445215 -55.665094 
L 495.535041 -55.221935 
L 492.733767 -54.778776 
L 490.816642 -54.335618 
L 489.57754 -53.892459 
L 488.830147 -53.4493 
z
" style="stroke: #424242; stroke-width: 0.8"/>
    </defs>
    <g clip-path="url(#pba433b9f17)">
     <use xlink:href="#mbf0f3ba558" x="0" y="188.39952" style="fill: #7c78ab; stroke: #424242; stroke-width: 0.8"/>
    </g>
   </g>
   <g id="matplotlib.axis_1">
    <g id="xtick_1">
     <g id="line2d_1">
      <defs>
       <path id="m0c1c3da19c" d="M 0 0 
L 0 -5 
" style="stroke: #000000; stroke-width: 0.8"/>
      </defs>
      <g>
       <use xlink:href="#m0c1c3da19c" x="131.380649" y="156.823582" style="stroke: #000000; stroke-width: 0.8"/>
      </g>
     </g>
     <g id="line2d_2">
      <defs>
       <path id="m4437d28113" d="M 0 0 
L 0 5 
" style="stroke: #000000; stroke-width: 0.8"/>
      </defs>
      <g>
       <use xlink:href="#m4437d28113" x="131.380649" y="7.2" style="stroke: #000000; stroke-width: 0.8"/>
      </g>
     </g>
     <g id="text_1">
      <!-- Treated substrate -->
      <g transform="translate(87.511899 167.92202) scale(0.1 -0.1)">
       <defs>
        <path id="DejaVuSans-54" d="M -19 4666 
L 3928 4666 
L 3928 4134 
L 2272 4134 
L 2272 0 
L 1638 0 
L 1638 4134 
L -19 4134 
L -19 4666 
z
" transform="scale(0.015625)"/>
        <path id="DejaVuSans-72" d="M 2631 2963 
Q 2534 3019 2420 3045 
Q 2306 3072 2169 3072 
Q 1681 3072 1420 2755 
Q 1159 2438 1159 1844 
L 1159 0 
L 581 0 
L 581 3500 
L 1159 3500 
L 1159 2956 
Q 1341 3275 1631 3429 
Q 1922 3584 2338 3584 
Q 2397 3584 2469 3576 
Q 2541 3569 2628 3553 
L 2631 2963 
z
" transform="scale(0.015625)"/>
        <path id="DejaVuSans-65" d="M 3597 1894 
L 3597 1613 
L 953 1613 
Q 991 1019 1311 708 
Q 1631 397 2203 397 
Q 2534 397 2845 478 
Q 3156 559 3463 722 
L 3463 178 
Q 3153 47 2828 -22 
Q 2503 -91 2169 -91 
Q 1331 -91 842 396 
Q 353 884 353 1716 
Q 353 2575 817 3079 
Q 1281 3584 2069 3584 
Q 2775 3584 3186 3129 
Q 3597 2675 3597 1894 
z
M 3022 2063 
Q 3016 2534 2758 2815 
Q 2500 3097 2075 3097 
Q 1594 3097 1305 2825 
Q 1016 2553 972 2059 
L 3022 2063 
z
" transform="scale(0.015625)"/>
        <path id="DejaVuSans-61" d="M 2194 1759 
Q 1497 1759 1228 1600 
Q 959 1441 959 1056 
Q 959 750 1161 570 
Q 1363 391 1709 391 
Q 2188 391 2477 730 
Q 2766 1069 2766 1631 
L 2766 1759 
L 2194 1759 
z
M 3341 1997 
L 3341 0 
L 2766 0 
L 2766 531 
Q 2569 213 2275 61 
Q 1981 -91 1556 -91 
Q 1019 -91 701 211 
Q 384 513 384 1019 
Q 384 1609 779 1909 
Q 1175 2209 1959 2209 
L 2766 2209 
L 2766 2266 
Q 2766 2663 2505 2880 
Q 2244 3097 1772 3097 
Q 1472 3097 1187 3025 
Q 903 2953 641 2809 
L 641 3341 
Q 956 3463 1253 3523 
Q 1550 3584 1831 3584 
Q 2591 3584 2966 3190 
Q 3341 2797 3341 1997 
z
" transform="scale(0.015625)"/>
        <path id="DejaVuSans-74" d="M 1172 4494 
L 1172 3500 
L 2356 3500 
L 2356 3053 
L 1172 3053 
L 1172 1153 
Q 1172 725 1289 603 
Q 1406 481 1766 481 
L 2356 481 
L 2356 0 
L 1766 0 
Q 1100 0 847 248 
Q 594 497 594 1153 
L 594 3053 
L 172 3053 
L 172 3500 
L 594 3500 
L 594 4494 
L 1172 4494 
z
" transform="scale(0.015625)"/>
        <path id="DejaVuSans-64" d="M 2906 2969 
L 2906 4863 
L 3481 4863 
L 3481 0 
L 2906 0 
L 2906 525 
Q 2725 213 2448 61 
Q 2172 -91 1784 -91 
Q 1150 -91 751 415 
Q 353 922 353 1747 
Q 353 2572 751 3078 
Q 1150 3584 1784 3584 
Q 2172 3584 2448 3432 
Q 2725 3281 2906 2969 
z
M 947 1747 
Q 947 1113 1208 752 
Q 1469 391 1925 391 
Q 2381 391 2643 752 
Q 2906 1113 2906 1747 
Q 2906 2381 2643 2742 
Q 2381 3103 1925 3103 
Q 1469 3103 1208 2742 
Q 947 2381 947 1747 
z
" transform="scale(0.015625)"/>
        <path id="DejaVuSans-20" transform="scale(0.015625)"/>
        <path id="DejaVuSans-73" d="M 2834 3397 
L 2834 2853 
Q 2591 2978 2328 3040 
Q 2066 3103 1784 3103 
Q 1356 3103 1142 2972 
Q 928 2841 928 2578 
Q 928 2378 1081 2264 
Q 1234 2150 1697 2047 
L 1894 2003 
Q 2506 1872 2764 1633 
Q 3022 1394 3022 966 
Q 3022 478 2636 193 
Q 2250 -91 1575 -91 
Q 1294 -91 989 -36 
Q 684 19 347 128 
L 347 722 
Q 666 556 975 473 
Q 1284 391 1588 391 
Q 1994 391 2212 530 
Q 2431 669 2431 922 
Q 2431 1156 2273 1281 
Q 2116 1406 1581 1522 
L 1381 1569 
Q 847 1681 609 1914 
Q 372 2147 372 2553 
Q 372 3047 722 3315 
Q 1072 3584 1716 3584 
Q 2034 3584 2315 3537 
Q 2597 3491 2834 3397 
z
" transform="scale(0.015625)"/>
        <path id="DejaVuSans-75" d="M 544 1381 
L 544 3500 
L 1119 3500 
L 1119 1403 
Q 1119 906 1312 657 
Q 1506 409 1894 409 
Q 2359 409 2629 706 
Q 2900 1003 2900 1516 
L 2900 3500 
L 3475 3500 
L 3475 0 
L 2900 0 
L 2900 538 
Q 2691 219 2414 64 
Q 2138 -91 1772 -91 
Q 1169 -91 856 284 
Q 544 659 544 1381 
z
M 1991 3584 
L 1991 3584 
z
" transform="scale(0.015625)"/>
        <path id="DejaVuSans-62" d="M 3116 1747 
Q 3116 2381 2855 2742 
Q 2594 3103 2138 3103 
Q 1681 3103 1420 2742 
Q 1159 2381 1159 1747 
Q 1159 1113 1420 752 
Q 1681 391 2138 391 
Q 2594 391 2855 752 
Q 3116 1113 3116 1747 
z
M 1159 2969 
Q 1341 3281 1617 3432 
Q 1894 3584 2278 3584 
Q 2916 3584 3314 3078 
Q 3713 2572 3713 1747 
Q 3713 922 3314 415 
Q 2916 -91 2278 -91 
Q 1894 -91 1617 61 
Q 1341 213 1159 525 
L 1159 0 
L 581 0 
L 581 4863 
L 1159 4863 
L 1159 2969 
z
" transform="scale(0.015625)"/>
       </defs>
       <use xlink:href="#DejaVuSans-54"/>
       <use xlink:href="#DejaVuSans-72" x="46.333984"/>
       <use xlink:href="#DejaVuSans-65" x="85.197266"/>
       <use xlink:href="#DejaVuSans-61" x="146.720703"/>
       <use xlink:href="#DejaVuSans-74" x="208"/>
       <use xlink:href="#DejaVuSans-65" x="247.208984"/>
       <use xlink:href="#DejaVuSans-64" x="308.732422"/>
       <use xlink:href="#DejaVuSans-20" x="372.208984"/>
       <use xlink:href="#DejaVuSans-73" x="403.996094"/>
       <use xlink:href="#DejaVuSans-75" x="456.095703"/>
       <use xlink:href="#DejaVuSans-62" x="519.474609"/>
       <use xlink:href="#DejaVuSans-73" x="582.951172"/>
       <use xlink:href="#DejaVuSans-74" x="635.050781"/>
       <use xlink:href="#DejaVuSans-72" x="674.259766"/>
       <use xlink:href="#DejaVuSans-61" x="715.373047"/>
       <use xlink:href="#DejaVuSans-74" x="776.652344"/>
       <use xlink:href="#DejaVuSans-65" x="815.861328"/>
      </g>
      <!-- (step width=213±88nm) -->
      <g transform="translate(68.968149 179.119833) scale(0.1 -0.1)">
       <defs>
        <path id="DejaVuSans-28" d="M 1984 4856 
Q 1566 4138 1362 3434 
Q 1159 2731 1159 2009 
Q 1159 1288 1364 580 
Q 1569 -128 1984 -844 
L 1484 -844 
Q 1016 -109 783 600 
Q 550 1309 550 2009 
Q 550 2706 781 3412 
Q 1013 4119 1484 4856 
L 1984 4856 
z
" transform="scale(0.015625)"/>
        <path id="DejaVuSans-70" d="M 1159 525 
L 1159 -1331 
L 581 -1331 
L 581 3500 
L 1159 3500 
L 1159 2969 
Q 1341 3281 1617 3432 
Q 1894 3584 2278 3584 
Q 2916 3584 3314 3078 
Q 3713 2572 3713 1747 
Q 3713 922 3314 415 
Q 2916 -91 2278 -91 
Q 1894 -91 1617 61 
Q 1341 213 1159 525 
z
M 3116 1747 
Q 3116 2381 2855 2742 
Q 2594 3103 2138 3103 
Q 1681 3103 1420 2742 
Q 1159 2381 1159 1747 
Q 1159 1113 1420 752 
Q 1681 391 2138 391 
Q 2594 391 2855 752 
Q 3116 1113 3116 1747 
z
" transform="scale(0.015625)"/>
        <path id="DejaVuSans-77" d="M 269 3500 
L 844 3500 
L 1563 769 
L 2278 3500 
L 2956 3500 
L 3675 769 
L 4391 3500 
L 4966 3500 
L 4050 0 
L 3372 0 
L 2619 2869 
L 1863 0 
L 1184 0 
L 269 3500 
z
" transform="scale(0.015625)"/>
        <path id="DejaVuSans-69" d="M 603 3500 
L 1178 3500 
L 1178 0 
L 603 0 
L 603 3500 
z
M 603 4863 
L 1178 4863 
L 1178 4134 
L 603 4134 
L 603 4863 
z
" transform="scale(0.015625)"/>
        <path id="DejaVuSans-68" d="M 3513 2113 
L 3513 0 
L 2938 0 
L 2938 2094 
Q 2938 2591 2744 2837 
Q 2550 3084 2163 3084 
Q 1697 3084 1428 2787 
Q 1159 2491 1159 1978 
L 1159 0 
L 581 0 
L 581 4863 
L 1159 4863 
L 1159 2956 
Q 1366 3272 1645 3428 
Q 1925 3584 2291 3584 
Q 2894 3584 3203 3211 
Q 3513 2838 3513 2113 
z
" transform="scale(0.015625)"/>
        <path id="DejaVuSans-3d" d="M 678 2906 
L 4684 2906 
L 4684 2381 
L 678 2381 
L 678 2906 
z
M 678 1631 
L 4684 1631 
L 4684 1100 
L 678 1100 
L 678 1631 
z
" transform="scale(0.015625)"/>
        <path id="DejaVuSans-32" d="M 1228 531 
L 3431 531 
L 3431 0 
L 469 0 
L 469 531 
Q 828 903 1448 1529 
Q 2069 2156 2228 2338 
Q 2531 2678 2651 2914 
Q 2772 3150 2772 3378 
Q 2772 3750 2511 3984 
Q 2250 4219 1831 4219 
Q 1534 4219 1204 4116 
Q 875 4013 500 3803 
L 500 4441 
Q 881 4594 1212 4672 
Q 1544 4750 1819 4750 
Q 2544 4750 2975 4387 
Q 3406 4025 3406 3419 
Q 3406 3131 3298 2873 
Q 3191 2616 2906 2266 
Q 2828 2175 2409 1742 
Q 1991 1309 1228 531 
z
" transform="scale(0.015625)"/>
        <path id="DejaVuSans-31" d="M 794 531 
L 1825 531 
L 1825 4091 
L 703 3866 
L 703 4441 
L 1819 4666 
L 2450 4666 
L 2450 531 
L 3481 531 
L 3481 0 
L 794 0 
L 794 531 
z
" transform="scale(0.015625)"/>
        <path id="DejaVuSans-33" d="M 2597 2516 
Q 3050 2419 3304 2112 
Q 3559 1806 3559 1356 
Q 3559 666 3084 287 
Q 2609 -91 1734 -91 
Q 1441 -91 1130 -33 
Q 819 25 488 141 
L 488 750 
Q 750 597 1062 519 
Q 1375 441 1716 441 
Q 2309 441 2620 675 
Q 2931 909 2931 1356 
Q 2931 1769 2642 2001 
Q 2353 2234 1838 2234 
L 1294 2234 
L 1294 2753 
L 1863 2753 
Q 2328 2753 2575 2939 
Q 2822 3125 2822 3475 
Q 2822 3834 2567 4026 
Q 2313 4219 1838 4219 
Q 1578 4219 1281 4162 
Q 984 4106 628 3988 
L 628 4550 
Q 988 4650 1302 4700 
Q 1616 4750 1894 4750 
Q 2613 4750 3031 4423 
Q 3450 4097 3450 3541 
Q 3450 3153 3228 2886 
Q 3006 2619 2597 2516 
z
" transform="scale(0.015625)"/>
        <path id="DejaVuSans-b1" d="M 2944 4013 
L 2944 2803 
L 4684 2803 
L 4684 2272 
L 2944 2272 
L 2944 1063 
L 2419 1063 
L 2419 2272 
L 678 2272 
L 678 2803 
L 2419 2803 
L 2419 4013 
L 2944 4013 
z
M 678 531 
L 4684 531 
L 4684 0 
L 678 0 
L 678 531 
z
" transform="scale(0.015625)"/>
        <path id="DejaVuSans-38" d="M 2034 2216 
Q 1584 2216 1326 1975 
Q 1069 1734 1069 1313 
Q 1069 891 1326 650 
Q 1584 409 2034 409 
Q 2484 409 2743 651 
Q 3003 894 3003 1313 
Q 3003 1734 2745 1975 
Q 2488 2216 2034 2216 
z
M 1403 2484 
Q 997 2584 770 2862 
Q 544 3141 544 3541 
Q 544 4100 942 4425 
Q 1341 4750 2034 4750 
Q 2731 4750 3128 4425 
Q 3525 4100 3525 3541 
Q 3525 3141 3298 2862 
Q 3072 2584 2669 2484 
Q 3125 2378 3379 2068 
Q 3634 1759 3634 1313 
Q 3634 634 3220 271 
Q 2806 -91 2034 -91 
Q 1263 -91 848 271 
Q 434 634 434 1313 
Q 434 1759 690 2068 
Q 947 2378 1403 2484 
z
M 1172 3481 
Q 1172 3119 1398 2916 
Q 1625 2713 2034 2713 
Q 2441 2713 2670 2916 
Q 2900 3119 2900 3481 
Q 2900 3844 2670 4047 
Q 2441 4250 2034 4250 
Q 1625 4250 1398 4047 
Q 1172 3844 1172 3481 
z
" transform="scale(0.015625)"/>
        <path id="DejaVuSans-6e" d="M 3513 2113 
L 3513 0 
L 2938 0 
L 2938 2094 
Q 2938 2591 2744 2837 
Q 2550 3084 2163 3084 
Q 1697 3084 1428 2787 
Q 1159 2491 1159 1978 
L 1159 0 
L 581 0 
L 581 3500 
L 1159 3500 
L 1159 2956 
Q 1366 3272 1645 3428 
Q 1925 3584 2291 3584 
Q 2894 3584 3203 3211 
Q 3513 2838 3513 2113 
z
" transform="scale(0.015625)"/>
        <path id="DejaVuSans-6d" d="M 3328 2828 
Q 3544 3216 3844 3400 
Q 4144 3584 4550 3584 
Q 5097 3584 5394 3201 
Q 5691 2819 5691 2113 
L 5691 0 
L 5113 0 
L 5113 2094 
Q 5113 2597 4934 2840 
Q 4756 3084 4391 3084 
Q 3944 3084 3684 2787 
Q 3425 2491 3425 1978 
L 3425 0 
L 2847 0 
L 2847 2094 
Q 2847 2600 2669 2842 
Q 2491 3084 2119 3084 
Q 1678 3084 1418 2786 
Q 1159 2488 1159 1978 
L 1159 0 
L 581 0 
L 581 3500 
L 1159 3500 
L 1159 2956 
Q 1356 3278 1631 3431 
Q 1906 3584 2284 3584 
Q 2666 3584 2933 3390 
Q 3200 3197 3328 2828 
z
" transform="scale(0.015625)"/>
        <path id="DejaVuSans-29" d="M 513 4856 
L 1013 4856 
Q 1481 4119 1714 3412 
Q 1947 2706 1947 2009 
Q 1947 1309 1714 600 
Q 1481 -109 1013 -844 
L 513 -844 
Q 928 -128 1133 580 
Q 1338 1288 1338 2009 
Q 1338 2731 1133 3434 
Q 928 4138 513 4856 
z
" transform="scale(0.015625)"/>
       </defs>
       <use xlink:href="#DejaVuSans-28"/>
       <use xlink:href="#DejaVuSans-73" x="39.013672"/>
       <use xlink:href="#DejaVuSans-74" x="91.113281"/>
       <use xlink:href="#DejaVuSans-65" x="130.322266"/>
       <use xlink:href="#DejaVuSans-70" x="191.845703"/>
       <use xlink:href="#DejaVuSans-20" x="255.322266"/>
       <use xlink:href="#DejaVuSans-77" x="287.109375"/>
       <use xlink:href="#DejaVuSans-69" x="368.896484"/>
       <use xlink:href="#DejaVuSans-64" x="396.679688"/>
       <use xlink:href="#DejaVuSans-74" x="460.15625"/>
       <use xlink:href="#DejaVuSans-68" x="499.365234"/>
       <use xlink:href="#DejaVuSans-3d" x="562.744141"/>
       <use xlink:href="#DejaVuSans-32" x="646.533203"/>
       <use xlink:href="#DejaVuSans-31" x="710.15625"/>
       <use xlink:href="#DejaVuSans-33" x="773.779297"/>
       <use xlink:href="#DejaVuSans-b1" x="837.402344"/>
       <use xlink:href="#DejaVuSans-38" x="921.191406"/>
       <use xlink:href="#DejaVuSans-38" x="984.814453"/>
       <use xlink:href="#DejaVuSans-6e" x="1048.4375"/>
       <use xlink:href="#DejaVuSans-6d" x="1111.816406"/>
       <use xlink:href="#DejaVuSans-29" x="1209.228516"/>
      </g>
     </g>
    </g>
    <g id="xtick_2">
     <g id="line2d_3">
      <g>
       <use xlink:href="#m0c1c3da19c" x="309.708197" y="156.823582" style="stroke: #000000; stroke-width: 0.8"/>
      </g>
     </g>
     <g id="line2d_4">
      <g>
       <use xlink:href="#m4437d28113" x="309.708197" y="7.2" style="stroke: #000000; stroke-width: 0.8"/>
      </g>
     </g>
     <g id="text_2">
      <!-- Treated substrate -->
      <g transform="translate(265.839448 167.92202) scale(0.1 -0.1)">
       <use xlink:href="#DejaVuSans-54"/>
       <use xlink:href="#DejaVuSans-72" x="46.333984"/>
       <use xlink:href="#DejaVuSans-65" x="85.197266"/>
       <use xlink:href="#DejaVuSans-61" x="146.720703"/>
       <use xlink:href="#DejaVuSans-74" x="208"/>
       <use xlink:href="#DejaVuSans-65" x="247.208984"/>
       <use xlink:href="#DejaVuSans-64" x="308.732422"/>
       <use xlink:href="#DejaVuSans-20" x="372.208984"/>
       <use xlink:href="#DejaVuSans-73" x="403.996094"/>
       <use xlink:href="#DejaVuSans-75" x="456.095703"/>
       <use xlink:href="#DejaVuSans-62" x="519.474609"/>
       <use xlink:href="#DejaVuSans-73" x="582.951172"/>
       <use xlink:href="#DejaVuSans-74" x="635.050781"/>
       <use xlink:href="#DejaVuSans-72" x="674.259766"/>
       <use xlink:href="#DejaVuSans-61" x="715.373047"/>
       <use xlink:href="#DejaVuSans-74" x="776.652344"/>
       <use xlink:href="#DejaVuSans-65" x="815.861328"/>
      </g>
      <!-- (step width=81±44nm) -->
      <g transform="translate(250.476947 179.119833) scale(0.1 -0.1)">
       <defs>
        <path id="DejaVuSans-34" d="M 2419 4116 
L 825 1625 
L 2419 1625 
L 2419 4116 
z
M 2253 4666 
L 3047 4666 
L 3047 1625 
L 3713 1625 
L 3713 1100 
L 3047 1100 
L 3047 0 
L 2419 0 
L 2419 1100 
L 313 1100 
L 313 1709 
L 2253 4666 
z
" transform="scale(0.015625)"/>
       </defs>
       <use xlink:href="#DejaVuSans-28"/>
       <use xlink:href="#DejaVuSans-73" x="39.013672"/>
       <use xlink:href="#DejaVuSans-74" x="91.113281"/>
       <use xlink:href="#DejaVuSans-65" x="130.322266"/>
       <use xlink:href="#DejaVuSans-70" x="191.845703"/>
       <use xlink:href="#DejaVuSans-20" x="255.322266"/>
       <use xlink:href="#DejaVuSans-77" x="287.109375"/>
       <use xlink:href="#DejaVuSans-69" x="368.896484"/>
       <use xlink:href="#DejaVuSans-64" x="396.679688"/>
       <use xlink:href="#DejaVuSans-74" x="460.15625"/>
       <use xlink:href="#DejaVuSans-68" x="499.365234"/>
       <use xlink:href="#DejaVuSans-3d" x="562.744141"/>
       <use xlink:href="#DejaVuSans-38" x="646.533203"/>
       <use xlink:href="#DejaVuSans-31" x="710.15625"/>
       <use xlink:href="#DejaVuSans-b1" x="773.779297"/>
       <use xlink:href="#DejaVuSans-34" x="857.568359"/>
       <use xlink:href="#DejaVuSans-34" x="921.191406"/>
       <use xlink:href="#DejaVuSans-6e" x="984.814453"/>
       <use xlink:href="#DejaVuSans-6d" x="1048.193359"/>
       <use xlink:href="#DejaVuSans-29" x="1145.605469"/>
      </g>
     </g>
    </g>
    <g id="xtick_3">
     <g id="line2d_5">
      <g>
       <use xlink:href="#m0c1c3da19c" x="488.035746" y="156.823582" style="stroke: #000000; stroke-width: 0.8"/>
      </g>
     </g>
     <g id="line2d_6">
      <g>
       <use xlink:href="#m4437d28113" x="488.035746" y="7.2" style="stroke: #000000; stroke-width: 0.8"/>
      </g>
     </g>
     <g id="text_3">
      <!-- Untreated substrate -->
      <g transform="translate(437.695121 167.92202) scale(0.1 -0.1)">
       <defs>
        <path id="DejaVuSans-55" d="M 556 4666 
L 1191 4666 
L 1191 1831 
Q 1191 1081 1462 751 
Q 1734 422 2344 422 
Q 2950 422 3222 751 
Q 3494 1081 3494 1831 
L 3494 4666 
L 4128 4666 
L 4128 1753 
Q 4128 841 3676 375 
Q 3225 -91 2344 -91 
Q 1459 -91 1007 375 
Q 556 841 556 1753 
L 556 4666 
z
" transform="scale(0.015625)"/>
       </defs>
       <use xlink:href="#DejaVuSans-55"/>
       <use xlink:href="#DejaVuSans-6e" x="73.193359"/>
       <use xlink:href="#DejaVuSans-74" x="136.572266"/>
       <use xlink:href="#DejaVuSans-72" x="175.78125"/>
       <use xlink:href="#DejaVuSans-65" x="214.644531"/>
       <use xlink:href="#DejaVuSans-61" x="276.167969"/>
       <use xlink:href="#DejaVuSans-74" x="337.447266"/>
       <use xlink:href="#DejaVuSans-65" x="376.65625"/>
       <use xlink:href="#DejaVuSans-64" x="438.179688"/>
       <use xlink:href="#DejaVuSans-20" x="501.65625"/>
       <use xlink:href="#DejaVuSans-73" x="533.443359"/>
       <use xlink:href="#DejaVuSans-75" x="585.542969"/>
       <use xlink:href="#DejaVuSans-62" x="648.921875"/>
       <use xlink:href="#DejaVuSans-73" x="712.398438"/>
       <use xlink:href="#DejaVuSans-74" x="764.498047"/>
       <use xlink:href="#DejaVuSans-72" x="803.707031"/>
       <use xlink:href="#DejaVuSans-61" x="844.820312"/>
       <use xlink:href="#DejaVuSans-74" x="906.099609"/>
       <use xlink:href="#DejaVuSans-65" x="945.308594"/>
      </g>
      <!-- (step width=162±83μm) -->
      <g transform="translate(425.610746 179.119833) scale(0.1 -0.1)">
       <defs>
        <path id="DejaVuSans-36" d="M 2113 2584 
Q 1688 2584 1439 2293 
Q 1191 2003 1191 1497 
Q 1191 994 1439 701 
Q 1688 409 2113 409 
Q 2538 409 2786 701 
Q 3034 994 3034 1497 
Q 3034 2003 2786 2293 
Q 2538 2584 2113 2584 
z
M 3366 4563 
L 3366 3988 
Q 3128 4100 2886 4159 
Q 2644 4219 2406 4219 
Q 1781 4219 1451 3797 
Q 1122 3375 1075 2522 
Q 1259 2794 1537 2939 
Q 1816 3084 2150 3084 
Q 2853 3084 3261 2657 
Q 3669 2231 3669 1497 
Q 3669 778 3244 343 
Q 2819 -91 2113 -91 
Q 1303 -91 875 529 
Q 447 1150 447 2328 
Q 447 3434 972 4092 
Q 1497 4750 2381 4750 
Q 2619 4750 2861 4703 
Q 3103 4656 3366 4563 
z
" transform="scale(0.015625)"/>
        <path id="DejaVuSans-3bc" d="M 544 -1331 
L 544 3500 
L 1119 3500 
L 1119 1325 
Q 1119 872 1334 640 
Q 1550 409 1972 409 
Q 2434 409 2667 671 
Q 2900 934 2900 1459 
L 2900 3500 
L 3475 3500 
L 3475 806 
Q 3475 619 3529 530 
Q 3584 441 3700 441 
Q 3728 441 3778 458 
Q 3828 475 3916 513 
L 3916 50 
Q 3788 -22 3673 -56 
Q 3559 -91 3450 -91 
Q 3234 -91 3106 31 
Q 2978 153 2931 403 
Q 2775 156 2548 32 
Q 2322 -91 2016 -91 
Q 1697 -91 1473 31 
Q 1250 153 1119 397 
L 1119 -1331 
L 544 -1331 
z
" transform="scale(0.015625)"/>
       </defs>
       <use xlink:href="#DejaVuSans-28"/>
       <use xlink:href="#DejaVuSans-73" x="39.013672"/>
       <use xlink:href="#DejaVuSans-74" x="91.113281"/>
       <use xlink:href="#DejaVuSans-65" x="130.322266"/>
       <use xlink:href="#DejaVuSans-70" x="191.845703"/>
       <use xlink:href="#DejaVuSans-20" x="255.322266"/>
       <use xlink:href="#DejaVuSans-77" x="287.109375"/>
       <use xlink:href="#DejaVuSans-69" x="368.896484"/>
       <use xlink:href="#DejaVuSans-64" x="396.679688"/>
       <use xlink:href="#DejaVuSans-74" x="460.15625"/>
       <use xlink:href="#DejaVuSans-68" x="499.365234"/>
       <use xlink:href="#DejaVuSans-3d" x="562.744141"/>
       <use xlink:href="#DejaVuSans-31" x="646.533203"/>
       <use xlink:href="#DejaVuSans-36" x="710.15625"/>
       <use xlink:href="#DejaVuSans-32" x="773.779297"/>
       <use xlink:href="#DejaVuSans-b1" x="837.402344"/>
       <use xlink:href="#DejaVuSans-38" x="921.191406"/>
       <use xlink:href="#DejaVuSans-33" x="984.814453"/>
       <use xlink:href="#DejaVuSans-3bc" x="1048.4375"/>
       <use xlink:href="#DejaVuSans-6d" x="1112.060547"/>
       <use xlink:href="#DejaVuSans-29" x="1209.472656"/>
      </g>
     </g>
    </g>
   </g>
   <g id="matplotlib.axis_2">
    <g id="ytick_1">
     <g id="line2d_7">
      <defs>
       <path id="mf5d3b9e7e7" d="M 0 0 
L 5 0 
" style="stroke: #000000; stroke-width: 0.8"/>
      </defs>
      <g>
       <use xlink:href="#mf5d3b9e7e7" x="42.216875" y="132.330376" style="stroke: #000000; stroke-width: 0.8"/>
      </g>
     </g>
     <g id="line2d_8">
      <defs>
       <path id="mea73d356ba" d="M 0 0 
L -5 0 
" style="stroke: #000000; stroke-width: 0.8"/>
      </defs>
      <g>
       <use xlink:href="#mea73d356ba" x="577.19952" y="132.330376" style="stroke: #000000; stroke-width: 0.8"/>
      </g>
     </g>
     <g id="text_4">
      <!-- 0.0 -->
      <g transform="translate(22.81375 136.129595) scale(0.1 -0.1)">
       <defs>
        <path id="DejaVuSans-30" d="M 2034 4250 
Q 1547 4250 1301 3770 
Q 1056 3291 1056 2328 
Q 1056 1369 1301 889 
Q 1547 409 2034 409 
Q 2525 409 2770 889 
Q 3016 1369 3016 2328 
Q 3016 3291 2770 3770 
Q 2525 4250 2034 4250 
z
M 2034 4750 
Q 2819 4750 3233 4129 
Q 3647 3509 3647 2328 
Q 3647 1150 3233 529 
Q 2819 -91 2034 -91 
Q 1250 -91 836 529 
Q 422 1150 422 2328 
Q 422 3509 836 4129 
Q 1250 4750 2034 4750 
z
" transform="scale(0.015625)"/>
        <path id="DejaVuSans-2e" d="M 684 794 
L 1344 794 
L 1344 0 
L 684 0 
L 684 794 
z
" transform="scale(0.015625)"/>
       </defs>
       <use xlink:href="#DejaVuSans-30"/>
       <use xlink:href="#DejaVuSans-2e" x="63.623047"/>
       <use xlink:href="#DejaVuSans-30" x="95.410156"/>
      </g>
     </g>
    </g>
    <g id="ytick_2">
     <g id="line2d_9">
      <g>
       <use xlink:href="#mf5d3b9e7e7" x="42.216875" y="95.046652" style="stroke: #000000; stroke-width: 0.8"/>
      </g>
     </g>
     <g id="line2d_10">
      <g>
       <use xlink:href="#mea73d356ba" x="577.19952" y="95.046652" style="stroke: #000000; stroke-width: 0.8"/>
      </g>
     </g>
     <g id="text_5">
      <!-- 0.2 -->
      <g transform="translate(22.81375 98.84587) scale(0.1 -0.1)">
       <use xlink:href="#DejaVuSans-30"/>
       <use xlink:href="#DejaVuSans-2e" x="63.623047"/>
       <use xlink:href="#DejaVuSans-32" x="95.410156"/>
      </g>
     </g>
    </g>
    <g id="ytick_3">
     <g id="line2d_11">
      <g>
       <use xlink:href="#mf5d3b9e7e7" x="42.216875" y="57.762927" style="stroke: #000000; stroke-width: 0.8"/>
      </g>
     </g>
     <g id="line2d_12">
      <g>
       <use xlink:href="#mea73d356ba" x="577.19952" y="57.762927" style="stroke: #000000; stroke-width: 0.8"/>
      </g>
     </g>
     <g id="text_6">
      <!-- 0.4 -->
      <g transform="translate(22.81375 61.562146) scale(0.1 -0.1)">
       <use xlink:href="#DejaVuSans-30"/>
       <use xlink:href="#DejaVuSans-2e" x="63.623047"/>
       <use xlink:href="#DejaVuSans-34" x="95.410156"/>
      </g>
     </g>
    </g>
    <g id="ytick_4">
     <g id="line2d_13">
      <g>
       <use xlink:href="#mf5d3b9e7e7" x="42.216875" y="20.479203" style="stroke: #000000; stroke-width: 0.8"/>
      </g>
     </g>
     <g id="line2d_14">
      <g>
       <use xlink:href="#mea73d356ba" x="577.19952" y="20.479203" style="stroke: #000000; stroke-width: 0.8"/>
      </g>
     </g>
     <g id="text_7">
      <!-- 0.6 -->
      <g transform="translate(22.81375 24.278421) scale(0.1 -0.1)">
       <use xlink:href="#DejaVuSans-30"/>
       <use xlink:href="#DejaVuSans-2e" x="63.623047"/>
       <use xlink:href="#DejaVuSans-36" x="95.410156"/>
      </g>
     </g>
    </g>
    <g id="text_8">
     <!-- Characteristic Time (s) -->
     <g transform="translate(16.318125 150.046166) rotate(-90) scale(0.12 -0.12)">
      <defs>
       <path id="DejaVuSans-43" d="M 4122 4306 
L 4122 3641 
Q 3803 3938 3442 4084 
Q 3081 4231 2675 4231 
Q 1875 4231 1450 3742 
Q 1025 3253 1025 2328 
Q 1025 1406 1450 917 
Q 1875 428 2675 428 
Q 3081 428 3442 575 
Q 3803 722 4122 1019 
L 4122 359 
Q 3791 134 3420 21 
Q 3050 -91 2638 -91 
Q 1578 -91 968 557 
Q 359 1206 359 2328 
Q 359 3453 968 4101 
Q 1578 4750 2638 4750 
Q 3056 4750 3426 4639 
Q 3797 4528 4122 4306 
z
" transform="scale(0.015625)"/>
       <path id="DejaVuSans-63" d="M 3122 3366 
L 3122 2828 
Q 2878 2963 2633 3030 
Q 2388 3097 2138 3097 
Q 1578 3097 1268 2742 
Q 959 2388 959 1747 
Q 959 1106 1268 751 
Q 1578 397 2138 397 
Q 2388 397 2633 464 
Q 2878 531 3122 666 
L 3122 134 
Q 2881 22 2623 -34 
Q 2366 -91 2075 -91 
Q 1284 -91 818 406 
Q 353 903 353 1747 
Q 353 2603 823 3093 
Q 1294 3584 2113 3584 
Q 2378 3584 2631 3529 
Q 2884 3475 3122 3366 
z
" transform="scale(0.015625)"/>
      </defs>
      <use xlink:href="#DejaVuSans-43"/>
      <use xlink:href="#DejaVuSans-68" x="69.824219"/>
      <use xlink:href="#DejaVuSans-61" x="133.203125"/>
      <use xlink:href="#DejaVuSans-72" x="194.482422"/>
      <use xlink:href="#DejaVuSans-61" x="235.595703"/>
      <use xlink:href="#DejaVuSans-63" x="296.875"/>
      <use xlink:href="#DejaVuSans-74" x="351.855469"/>
      <use xlink:href="#DejaVuSans-65" x="391.064453"/>
      <use xlink:href="#DejaVuSans-72" x="452.587891"/>
      <use xlink:href="#DejaVuSans-69" x="493.701172"/>
      <use xlink:href="#DejaVuSans-73" x="521.484375"/>
      <use xlink:href="#DejaVuSans-74" x="573.583984"/>
      <use xlink:href="#DejaVuSans-69" x="612.792969"/>
      <use xlink:href="#DejaVuSans-63" x="640.576172"/>
      <use xlink:href="#DejaVuSans-20" x="695.556641"/>
      <use xlink:href="#DejaVuSans-54" x="727.34375"/>
      <use xlink:href="#DejaVuSans-69" x="785.302734"/>
      <use xlink:href="#DejaVuSans-6d" x="813.085938"/>
      <use xlink:href="#DejaVuSans-65" x="910.498047"/>
      <use xlink:href="#DejaVuSans-20" x="972.021484"/>
      <use xlink:href="#DejaVuSans-28" x="1003.808594"/>
      <use xlink:href="#DejaVuSans-73" x="1042.822266"/>
      <use xlink:href="#DejaVuSans-29" x="1094.921875"/>
     </g>
    </g>
   </g>
   <g id="line2d_15">
    <path d="M 131.380649 131.982432 
L 131.380649 69.072801 
" clip-path="url(#pba433b9f17)" style="fill: none; stroke: #424242; stroke-width: 1.2; stroke-linecap: square"/>
   </g>
   <g id="line2d_16">
    <path d="M 131.380649 117.113022 
L 131.380649 97.793526 
" clip-path="url(#pba433b9f17)" style="fill: none; stroke: #424242; stroke-width: 3.6; stroke-linecap: square"/>
   </g>
   <g id="line2d_17">
    <path d="M 131.380649 110.186498 
" clip-path="url(#pba433b9f17)" style="fill: none; stroke: #424242; stroke-width: 0.5; stroke-linecap: square"/>
    <defs>
     <path id="mb1b5ea531d" d="M 1.5 0 
L -1.5 -0 
" style="stroke: #ffffff; stroke-width: 0.72"/>
    </defs>
    <g clip-path="url(#pba433b9f17)">
     <use xlink:href="#mb1b5ea531d" x="131.380649" y="110.186498" style="fill: #ffffff; stroke: #ffffff; stroke-width: 0.72"/>
    </g>
   </g>
   <g id="line2d_18">
    <path d="M 309.708197 132.143957 
L 309.708197 55.993064 
" clip-path="url(#pba433b9f17)" style="fill: none; stroke: #424242; stroke-width: 1.2; stroke-linecap: square"/>
   </g>
   <g id="line2d_19">
    <path d="M 309.708197 127.364072 
L 309.708197 98.333927 
" clip-path="url(#pba433b9f17)" style="fill: none; stroke: #424242; stroke-width: 3.6; stroke-linecap: square"/>
   </g>
   <g id="line2d_20">
    <path d="M 309.708197 117.467325 
" clip-path="url(#pba433b9f17)" style="fill: none; stroke: #424242; stroke-width: 0.5; stroke-linecap: square"/>
    <g clip-path="url(#pba433b9f17)">
     <use xlink:href="#mb1b5ea531d" x="309.708197" y="117.467325" style="fill: #ffffff; stroke: #ffffff; stroke-width: 0.72"/>
    </g>
   </g>
   <g id="line2d_21">
    <path d="M 488.035746 131.479293 
L 488.035746 126.10004 
" clip-path="url(#pba433b9f17)" style="fill: none; stroke: #424242; stroke-width: 1.2; stroke-linecap: square"/>
   </g>
   <g id="line2d_22">
    <path d="M 488.035746 129.693877 
L 488.035746 128.250816 
" clip-path="url(#pba433b9f17)" style="fill: none; stroke: #424242; stroke-width: 3.6; stroke-linecap: square"/>
   </g>
   <g id="line2d_23">
    <path d="M 488.035746 128.969005 
" clip-path="url(#pba433b9f17)" style="fill: none; stroke: #424242; stroke-width: 0.5; stroke-linecap: square"/>
    <g clip-path="url(#pba433b9f17)">
     <use xlink:href="#mb1b5ea531d" x="488.035746" y="128.969005" style="fill: #ffffff; stroke: #ffffff; stroke-width: 0.72"/>
    </g>
   </g>
   <g id="patch_3">
    <path d="M 42.216875 156.823582 
L 42.216875 7.2 
" style="fill: none; stroke: #000000; stroke-width: 0.5; stroke-linejoin: miter; stroke-linecap: square"/>
   </g>
   <g id="patch_4">
    <path d="M 577.19952 156.823582 
L 577.19952 7.2 
" style="fill: none; stroke: #000000; stroke-width: 0.5; stroke-linejoin: miter; stroke-linecap: square"/>
   </g>
   <g id="patch_5">
    <path d="M 42.216875 156.823582 
L 577.19952 156.823582 
" style="fill: none; stroke: #000000; stroke-width: 0.5; stroke-linejoin: miter; stroke-linecap: square"/>
   </g>
   <g id="patch_6">
    <path d="M 42.216875 7.2 
L 577.19952 7.2 
" style="fill: none; stroke: #000000; stroke-width: 0.5; stroke-linejoin: miter; stroke-linecap: square"/>
   </g>
   <g id="text_9">
    <!-- 0.1188 -->
    <g transform="translate(134.9472 116.829661) scale(0.14 -0.14)">
     <defs>
      <path id="DejaVuSans-Bold-30" d="M 2944 2338 
Q 2944 3213 2780 3570 
Q 2616 3928 2228 3928 
Q 1841 3928 1675 3570 
Q 1509 3213 1509 2338 
Q 1509 1453 1675 1090 
Q 1841 728 2228 728 
Q 2613 728 2778 1090 
Q 2944 1453 2944 2338 
z
M 4147 2328 
Q 4147 1169 3647 539 
Q 3147 -91 2228 -91 
Q 1306 -91 806 539 
Q 306 1169 306 2328 
Q 306 3491 806 4120 
Q 1306 4750 2228 4750 
Q 3147 4750 3647 4120 
Q 4147 3491 4147 2328 
z
" transform="scale(0.015625)"/>
      <path id="DejaVuSans-Bold-2e" d="M 653 1209 
L 1778 1209 
L 1778 0 
L 653 0 
L 653 1209 
z
" transform="scale(0.015625)"/>
      <path id="DejaVuSans-Bold-31" d="M 750 831 
L 1813 831 
L 1813 3847 
L 722 3622 
L 722 4441 
L 1806 4666 
L 2950 4666 
L 2950 831 
L 4013 831 
L 4013 0 
L 750 0 
L 750 831 
z
" transform="scale(0.015625)"/>
      <path id="DejaVuSans-Bold-38" d="M 2228 2088 
Q 1891 2088 1709 1903 
Q 1528 1719 1528 1375 
Q 1528 1031 1709 848 
Q 1891 666 2228 666 
Q 2563 666 2741 848 
Q 2919 1031 2919 1375 
Q 2919 1722 2741 1905 
Q 2563 2088 2228 2088 
z
M 1350 2484 
Q 925 2613 709 2878 
Q 494 3144 494 3541 
Q 494 4131 934 4440 
Q 1375 4750 2228 4750 
Q 3075 4750 3515 4442 
Q 3956 4134 3956 3541 
Q 3956 3144 3739 2878 
Q 3522 2613 3097 2484 
Q 3572 2353 3814 2058 
Q 4056 1763 4056 1313 
Q 4056 619 3595 264 
Q 3134 -91 2228 -91 
Q 1319 -91 855 264 
Q 391 619 391 1313 
Q 391 1763 633 2058 
Q 875 2353 1350 2484 
z
M 1631 3419 
Q 1631 3141 1786 2991 
Q 1941 2841 2228 2841 
Q 2509 2841 2662 2991 
Q 2816 3141 2816 3419 
Q 2816 3697 2662 3845 
Q 2509 3994 2228 3994 
Q 1941 3994 1786 3844 
Q 1631 3694 1631 3419 
z
" transform="scale(0.015625)"/>
     </defs>
     <use xlink:href="#DejaVuSans-Bold-30"/>
     <use xlink:href="#DejaVuSans-Bold-2e" x="69.580078"/>
     <use xlink:href="#DejaVuSans-Bold-31" x="107.568359"/>
     <use xlink:href="#DejaVuSans-Bold-31" x="177.148438"/>
     <use xlink:href="#DejaVuSans-Bold-38" x="246.728516"/>
     <use xlink:href="#DejaVuSans-Bold-38" x="316.308594"/>
    </g>
   </g>
   <g id="text_10">
    <!-- 0.0797 -->
    <g transform="translate(313.274748 121.92624) scale(0.14 -0.14)">
     <defs>
      <path id="DejaVuSans-Bold-37" d="M 428 4666 
L 3944 4666 
L 3944 3988 
L 2125 0 
L 953 0 
L 2675 3781 
L 428 3781 
L 428 4666 
z
" transform="scale(0.015625)"/>
      <path id="DejaVuSans-Bold-39" d="M 641 103 
L 641 966 
Q 928 831 1190 764 
Q 1453 697 1709 697 
Q 2247 697 2547 995 
Q 2847 1294 2900 1881 
Q 2688 1725 2447 1647 
Q 2206 1569 1925 1569 
Q 1209 1569 770 1986 
Q 331 2403 331 3084 
Q 331 3838 820 4291 
Q 1309 4744 2131 4744 
Q 3044 4744 3544 4128 
Q 4044 3513 4044 2388 
Q 4044 1231 3459 570 
Q 2875 -91 1856 -91 
Q 1528 -91 1228 -42 
Q 928 6 641 103 
z
M 2125 2350 
Q 2441 2350 2600 2554 
Q 2759 2759 2759 3169 
Q 2759 3575 2600 3781 
Q 2441 3988 2125 3988 
Q 1809 3988 1650 3781 
Q 1491 3575 1491 3169 
Q 1491 2759 1650 2554 
Q 1809 2350 2125 2350 
z
" transform="scale(0.015625)"/>
     </defs>
     <use xlink:href="#DejaVuSans-Bold-30"/>
     <use xlink:href="#DejaVuSans-Bold-2e" x="69.580078"/>
     <use xlink:href="#DejaVuSans-Bold-30" x="107.568359"/>
     <use xlink:href="#DejaVuSans-Bold-37" x="177.148438"/>
     <use xlink:href="#DejaVuSans-Bold-39" x="246.728516"/>
     <use xlink:href="#DejaVuSans-Bold-37" x="316.308594"/>
    </g>
   </g>
   <g id="text_11">
    <!-- 0.018 -->
    <g transform="translate(491.602297 129.977417) scale(0.14 -0.14)">
     <use xlink:href="#DejaVuSans-Bold-30"/>
     <use xlink:href="#DejaVuSans-Bold-2e" x="69.580078"/>
     <use xlink:href="#DejaVuSans-Bold-30" x="107.568359"/>
     <use xlink:href="#DejaVuSans-Bold-31" x="177.148438"/>
     <use xlink:href="#DejaVuSans-Bold-38" x="246.728516"/>
    </g>
   </g>
  </g>
 </g>
 <defs>
  <clipPath id="pba433b9f17">
   <rect x="42.216875" y="7.2" width="534.982645" height="149.623582"/>
  </clipPath>
 </defs>
</svg>
