<?xml version="1.0" encoding="utf-8" standalone="no"?>
<!DOCTYPE svg PUBLIC "-//W3C//DTD SVG 1.1//EN"
  "http://www.w3.org/Graphics/SVG/1.1/DTD/svg11.dtd">
<svg xmlns:xlink="http://www.w3.org/1999/xlink" width="371.306875pt" height="87.985938pt" viewBox="0 0 371.306875 87.985938" xmlns="http://www.w3.org/2000/svg" version="1.1">
 <metadata>
  <rdf:RDF xmlns:dc="http://purl.org/dc/elements/1.1/" xmlns:cc="http://creativecommons.org/ns#" xmlns:rdf="http://www.w3.org/1999/02/22-rdf-syntax-ns#">
   <cc:Work>
    <dc:type rdf:resource="http://purl.org/dc/dcmitype/StillImage"/>
    <dc:date>2024-11-09T23:27:02.186053</dc:date>
    <dc:format>image/svg+xml</dc:format>
    <dc:creator>
     <cc:Agent>
      <dc:title>Matplotlib v3.9.2, https://matplotlib.org/</dc:title>
     </cc:Agent>
    </dc:creator>
   </cc:Work>
  </rdf:RDF>
 </metadata>
 <defs>
  <style type="text/css">*{stroke-linejoin: round; stroke-linecap: butt}</style>
 </defs>
 <g id="figure_1">
  <g id="patch_1">
   <path d="M 0 87.985938 
L 371.306875 87.985938 
L 371.306875 0 
L 0 0 
z
" style="fill: #ffffff"/>
  </g>
  <g id="axes_1">
   <g id="patch_2">
    <path d="M 29.306875 62.64 
L 364.106875 62.64 
L 364.106875 7.2 
L 29.306875 7.2 
z
" style="fill: #ffffff"/>
   </g>
   <g id="matplotlib.axis_1">
    <g id="xtick_1">
     <g id="line2d_1">
      <defs>
       <path id="mec3d453687" d="M 0 0 
L 0 -3.5 
" style="stroke: #000000; stroke-width: 0.8"/>
      </defs>
      <g>
       <use xlink:href="#mec3d453687" x="38.355524" y="62.64" style="stroke: #000000; stroke-width: 0.8"/>
      </g>
     </g>
     <g id="line2d_2">
      <defs>
       <path id="m5d75d95cae" d="M 0 0 
L 0 3.5 
" style="stroke: #000000; stroke-width: 0.8"/>
      </defs>
      <g>
       <use xlink:href="#m5d75d95cae" x="38.355524" y="7.2" style="stroke: #000000; stroke-width: 0.8"/>
      </g>
     </g>
     <g id="text_1">
      <!-- 42 -->
      <g transform="translate(35.174274 69.939219) scale(0.05 -0.05)">
       <defs>
        <path id="DejaVuSans-34" d="M 2419 4116 
L 825 1625 
L 2419 1625 
L 2419 4116 
z
M 2253 4666 
L 3047 4666 
L 3047 1625 
L 3713 1625 
L 3713 1100 
L 3047 1100 
L 3047 0 
L 2419 0 
L 2419 1100 
L 313 1100 
L 313 1709 
L 2253 4666 
z
" transform="scale(0.015625)"/>
        <path id="DejaVuSans-32" d="M 1228 531 
L 3431 531 
L 3431 0 
L 469 0 
L 469 531 
Q 828 903 1448 1529 
Q 2069 2156 2228 2338 
Q 2531 2678 2651 2914 
Q 2772 3150 2772 3378 
Q 2772 3750 2511 3984 
Q 2250 4219 1831 4219 
Q 1534 4219 1204 4116 
Q 875 4013 500 3803 
L 500 4441 
Q 881 4594 1212 4672 
Q 1544 4750 1819 4750 
Q 2544 4750 2975 4387 
Q 3406 4025 3406 3419 
Q 3406 3131 3298 2873 
Q 3191 2616 2906 2266 
Q 2828 2175 2409 1742 
Q 1991 1309 1228 531 
z
" transform="scale(0.015625)"/>
       </defs>
       <use xlink:href="#DejaVuSans-34"/>
       <use xlink:href="#DejaVuSans-32" x="63.623047"/>
      </g>
     </g>
    </g>
    <g id="xtick_2">
     <g id="line2d_3">
      <g>
       <use xlink:href="#mec3d453687" x="83.598767" y="62.64" style="stroke: #000000; stroke-width: 0.8"/>
      </g>
     </g>
     <g id="line2d_4">
      <g>
       <use xlink:href="#m5d75d95cae" x="83.598767" y="7.2" style="stroke: #000000; stroke-width: 0.8"/>
      </g>
     </g>
     <g id="text_2">
      <!-- 43 -->
      <g transform="translate(80.417517 69.939219) scale(0.05 -0.05)">
       <defs>
        <path id="DejaVuSans-33" d="M 2597 2516 
Q 3050 2419 3304 2112 
Q 3559 1806 3559 1356 
Q 3559 666 3084 287 
Q 2609 -91 1734 -91 
Q 1441 -91 1130 -33 
Q 819 25 488 141 
L 488 750 
Q 750 597 1062 519 
Q 1375 441 1716 441 
Q 2309 441 2620 675 
Q 2931 909 2931 1356 
Q 2931 1769 2642 2001 
Q 2353 2234 1838 2234 
L 1294 2234 
L 1294 2753 
L 1863 2753 
Q 2328 2753 2575 2939 
Q 2822 3125 2822 3475 
Q 2822 3834 2567 4026 
Q 2313 4219 1838 4219 
Q 1578 4219 1281 4162 
Q 984 4106 628 3988 
L 628 4550 
Q 988 4650 1302 4700 
Q 1616 4750 1894 4750 
Q 2613 4750 3031 4423 
Q 3450 4097 3450 3541 
Q 3450 3153 3228 2886 
Q 3006 2619 2597 2516 
z
" transform="scale(0.015625)"/>
       </defs>
       <use xlink:href="#DejaVuSans-34"/>
       <use xlink:href="#DejaVuSans-33" x="63.623047"/>
      </g>
     </g>
    </g>
    <g id="xtick_3">
     <g id="line2d_5">
      <g>
       <use xlink:href="#mec3d453687" x="128.84201" y="62.64" style="stroke: #000000; stroke-width: 0.8"/>
      </g>
     </g>
     <g id="line2d_6">
      <g>
       <use xlink:href="#m5d75d95cae" x="128.84201" y="7.2" style="stroke: #000000; stroke-width: 0.8"/>
      </g>
     </g>
     <g id="text_3">
      <!-- 44 -->
      <g transform="translate(125.66076 69.939219) scale(0.05 -0.05)">
       <use xlink:href="#DejaVuSans-34"/>
       <use xlink:href="#DejaVuSans-34" x="63.623047"/>
      </g>
     </g>
    </g>
    <g id="xtick_4">
     <g id="line2d_7">
      <g>
       <use xlink:href="#mec3d453687" x="174.085253" y="62.64" style="stroke: #000000; stroke-width: 0.8"/>
      </g>
     </g>
     <g id="line2d_8">
      <g>
       <use xlink:href="#m5d75d95cae" x="174.085253" y="7.2" style="stroke: #000000; stroke-width: 0.8"/>
      </g>
     </g>
     <g id="text_4">
      <!-- 45 -->
      <g transform="translate(170.904003 69.939219) scale(0.05 -0.05)">
       <defs>
        <path id="DejaVuSans-35" d="M 691 4666 
L 3169 4666 
L 3169 4134 
L 1269 4134 
L 1269 2991 
Q 1406 3038 1543 3061 
Q 1681 3084 1819 3084 
Q 2600 3084 3056 2656 
Q 3513 2228 3513 1497 
Q 3513 744 3044 326 
Q 2575 -91 1722 -91 
Q 1428 -91 1123 -41 
Q 819 9 494 109 
L 494 744 
Q 775 591 1075 516 
Q 1375 441 1709 441 
Q 2250 441 2565 725 
Q 2881 1009 2881 1497 
Q 2881 1984 2565 2268 
Q 2250 2553 1709 2553 
Q 1456 2553 1204 2497 
Q 953 2441 691 2322 
L 691 4666 
z
" transform="scale(0.015625)"/>
       </defs>
       <use xlink:href="#DejaVuSans-34"/>
       <use xlink:href="#DejaVuSans-35" x="63.623047"/>
      </g>
     </g>
    </g>
    <g id="xtick_5">
     <g id="line2d_9">
      <g>
       <use xlink:href="#mec3d453687" x="219.328497" y="62.64" style="stroke: #000000; stroke-width: 0.8"/>
      </g>
     </g>
     <g id="line2d_10">
      <g>
       <use xlink:href="#m5d75d95cae" x="219.328497" y="7.2" style="stroke: #000000; stroke-width: 0.8"/>
      </g>
     </g>
     <g id="text_5">
      <!-- 46 -->
      <g transform="translate(216.147247 69.939219) scale(0.05 -0.05)">
       <defs>
        <path id="DejaVuSans-36" d="M 2113 2584 
Q 1688 2584 1439 2293 
Q 1191 2003 1191 1497 
Q 1191 994 1439 701 
Q 1688 409 2113 409 
Q 2538 409 2786 701 
Q 3034 994 3034 1497 
Q 3034 2003 2786 2293 
Q 2538 2584 2113 2584 
z
M 3366 4563 
L 3366 3988 
Q 3128 4100 2886 4159 
Q 2644 4219 2406 4219 
Q 1781 4219 1451 3797 
Q 1122 3375 1075 2522 
Q 1259 2794 1537 2939 
Q 1816 3084 2150 3084 
Q 2853 3084 3261 2657 
Q 3669 2231 3669 1497 
Q 3669 778 3244 343 
Q 2819 -91 2113 -91 
Q 1303 -91 875 529 
Q 447 1150 447 2328 
Q 447 3434 972 4092 
Q 1497 4750 2381 4750 
Q 2619 4750 2861 4703 
Q 3103 4656 3366 4563 
z
" transform="scale(0.015625)"/>
       </defs>
       <use xlink:href="#DejaVuSans-34"/>
       <use xlink:href="#DejaVuSans-36" x="63.623047"/>
      </g>
     </g>
    </g>
    <g id="xtick_6">
     <g id="line2d_11">
      <g>
       <use xlink:href="#mec3d453687" x="264.57174" y="62.64" style="stroke: #000000; stroke-width: 0.8"/>
      </g>
     </g>
     <g id="line2d_12">
      <g>
       <use xlink:href="#m5d75d95cae" x="264.57174" y="7.2" style="stroke: #000000; stroke-width: 0.8"/>
      </g>
     </g>
     <g id="text_6">
      <!-- 47 -->
      <g transform="translate(261.39049 69.939219) scale(0.05 -0.05)">
       <defs>
        <path id="DejaVuSans-37" d="M 525 4666 
L 3525 4666 
L 3525 4397 
L 1831 0 
L 1172 0 
L 2766 4134 
L 525 4134 
L 525 4666 
z
" transform="scale(0.015625)"/>
       </defs>
       <use xlink:href="#DejaVuSans-34"/>
       <use xlink:href="#DejaVuSans-37" x="63.623047"/>
      </g>
     </g>
    </g>
    <g id="xtick_7">
     <g id="line2d_13">
      <g>
       <use xlink:href="#mec3d453687" x="309.814983" y="62.64" style="stroke: #000000; stroke-width: 0.8"/>
      </g>
     </g>
     <g id="line2d_14">
      <g>
       <use xlink:href="#m5d75d95cae" x="309.814983" y="7.2" style="stroke: #000000; stroke-width: 0.8"/>
      </g>
     </g>
     <g id="text_7">
      <!-- 48 -->
      <g transform="translate(306.633733 69.939219) scale(0.05 -0.05)">
       <defs>
        <path id="DejaVuSans-38" d="M 2034 2216 
Q 1584 2216 1326 1975 
Q 1069 1734 1069 1313 
Q 1069 891 1326 650 
Q 1584 409 2034 409 
Q 2484 409 2743 651 
Q 3003 894 3003 1313 
Q 3003 1734 2745 1975 
Q 2488 2216 2034 2216 
z
M 1403 2484 
Q 997 2584 770 2862 
Q 544 3141 544 3541 
Q 544 4100 942 4425 
Q 1341 4750 2034 4750 
Q 2731 4750 3128 4425 
Q 3525 4100 3525 3541 
Q 3525 3141 3298 2862 
Q 3072 2584 2669 2484 
Q 3125 2378 3379 2068 
Q 3634 1759 3634 1313 
Q 3634 634 3220 271 
Q 2806 -91 2034 -91 
Q 1263 -91 848 271 
Q 434 634 434 1313 
Q 434 1759 690 2068 
Q 947 2378 1403 2484 
z
M 1172 3481 
Q 1172 3119 1398 2916 
Q 1625 2713 2034 2713 
Q 2441 2713 2670 2916 
Q 2900 3119 2900 3481 
Q 2900 3844 2670 4047 
Q 2441 4250 2034 4250 
Q 1625 4250 1398 4047 
Q 1172 3844 1172 3481 
z
" transform="scale(0.015625)"/>
       </defs>
       <use xlink:href="#DejaVuSans-34"/>
       <use xlink:href="#DejaVuSans-38" x="63.623047"/>
      </g>
     </g>
    </g>
    <g id="xtick_8">
     <g id="line2d_15">
      <g>
       <use xlink:href="#mec3d453687" x="355.058226" y="62.64" style="stroke: #000000; stroke-width: 0.8"/>
      </g>
     </g>
     <g id="line2d_16">
      <g>
       <use xlink:href="#m5d75d95cae" x="355.058226" y="7.2" style="stroke: #000000; stroke-width: 0.8"/>
      </g>
     </g>
     <g id="text_8">
      <!-- 49 -->
      <g transform="translate(351.876976 69.939219) scale(0.05 -0.05)">
       <defs>
        <path id="DejaVuSans-39" d="M 703 97 
L 703 672 
Q 941 559 1184 500 
Q 1428 441 1663 441 
Q 2288 441 2617 861 
Q 2947 1281 2994 2138 
Q 2813 1869 2534 1725 
Q 2256 1581 1919 1581 
Q 1219 1581 811 2004 
Q 403 2428 403 3163 
Q 403 3881 828 4315 
Q 1253 4750 1959 4750 
Q 2769 4750 3195 4129 
Q 3622 3509 3622 2328 
Q 3622 1225 3098 567 
Q 2575 -91 1691 -91 
Q 1453 -91 1209 -44 
Q 966 3 703 97 
z
M 1959 2075 
Q 2384 2075 2632 2365 
Q 2881 2656 2881 3163 
Q 2881 3666 2632 3958 
Q 2384 4250 1959 4250 
Q 1534 4250 1286 3958 
Q 1038 3666 1038 3163 
Q 1038 2656 1286 2365 
Q 1534 2075 1959 2075 
z
" transform="scale(0.015625)"/>
       </defs>
       <use xlink:href="#DejaVuSans-34"/>
       <use xlink:href="#DejaVuSans-39" x="63.623047"/>
      </g>
     </g>
    </g>
    <g id="text_9">
     <!-- 2$\Theta$ -->
     <g transform="translate(192.416875 79.538125) scale(0.06 -0.06)">
      <defs>
       <path id="DejaVuSans-398" d="M 1416 2750 
L 3622 2750 
L 3622 2219 
L 1416 2219 
L 1416 2750 
z
M 2522 4238 
Q 1834 4238 1431 3725 
Q 1025 3213 1025 2328 
Q 1025 1447 1429 934 
Q 1834 422 2522 422 
Q 3209 422 3613 934 
Q 4013 1447 4013 2328 
Q 4013 3213 3613 3725 
Q 3209 4238 2522 4238 
z
M 2522 4750 
Q 3503 4750 4090 4092 
Q 4678 3434 4678 2328 
Q 4678 1225 4091 569 
Q 3503 -91 2522 -91 
Q 1538 -91 950 566 
Q 359 1222 359 2328 
Q 359 3434 950 4094 
Q 1538 4750 2522 4750 
z
" transform="scale(0.015625)"/>
      </defs>
      <use xlink:href="#DejaVuSans-32" transform="translate(0 0.78125)"/>
      <use xlink:href="#DejaVuSans-398" transform="translate(63.623047 0.78125)"/>
     </g>
    </g>
   </g>
   <g id="matplotlib.axis_2">
    <g id="ytick_1">
     <g id="line2d_17">
      <defs>
       <path id="m270b790c3a" d="M 0 0 
L 3.5 0 
" style="stroke: #000000; stroke-width: 0.8"/>
      </defs>
      <g>
       <use xlink:href="#m270b790c3a" x="29.306875" y="52.846849" style="stroke: #000000; stroke-width: 0.8"/>
      </g>
     </g>
     <g id="line2d_18">
      <defs>
       <path id="mcfc9c8f727" d="M 0 0 
L -3.5 0 
" style="stroke: #000000; stroke-width: 0.8"/>
      </defs>
      <g>
       <use xlink:href="#mcfc9c8f727" x="364.106875" y="52.846849" style="stroke: #000000; stroke-width: 0.8"/>
      </g>
     </g>
     <g id="text_10">
      <!-- $\mathdefault{10^{2}}$ -->
      <g transform="translate(17.006875 54.746458) scale(0.05 -0.05)">
       <defs>
        <path id="DejaVuSans-31" d="M 794 531 
L 1825 531 
L 1825 4091 
L 703 3866 
L 703 4441 
L 1819 4666 
L 2450 4666 
L 2450 531 
L 3481 531 
L 3481 0 
L 794 0 
L 794 531 
z
" transform="scale(0.015625)"/>
        <path id="DejaVuSans-30" d="M 2034 4250 
Q 1547 4250 1301 3770 
Q 1056 3291 1056 2328 
Q 1056 1369 1301 889 
Q 1547 409 2034 409 
Q 2525 409 2770 889 
Q 3016 1369 3016 2328 
Q 3016 3291 2770 3770 
Q 2525 4250 2034 4250 
z
M 2034 4750 
Q 2819 4750 3233 4129 
Q 3647 3509 3647 2328 
Q 3647 1150 3233 529 
Q 2819 -91 2034 -91 
Q 1250 -91 836 529 
Q 422 1150 422 2328 
Q 422 3509 836 4129 
Q 1250 4750 2034 4750 
z
" transform="scale(0.015625)"/>
       </defs>
       <use xlink:href="#DejaVuSans-31" transform="translate(0 0.765625)"/>
       <use xlink:href="#DejaVuSans-30" transform="translate(63.623047 0.765625)"/>
       <use xlink:href="#DejaVuSans-32" transform="translate(128.203125 39.046875) scale(0.7)"/>
      </g>
     </g>
    </g>
    <g id="ytick_2">
     <g id="line2d_19">
      <g>
       <use xlink:href="#m270b790c3a" x="29.306875" y="36.036173" style="stroke: #000000; stroke-width: 0.8"/>
      </g>
     </g>
     <g id="line2d_20">
      <g>
       <use xlink:href="#mcfc9c8f727" x="364.106875" y="36.036173" style="stroke: #000000; stroke-width: 0.8"/>
      </g>
     </g>
     <g id="text_11">
      <!-- $\mathdefault{10^{4}}$ -->
      <g transform="translate(17.006875 37.935783) scale(0.05 -0.05)">
       <use xlink:href="#DejaVuSans-31" transform="translate(0 0.684375)"/>
       <use xlink:href="#DejaVuSans-30" transform="translate(63.623047 0.684375)"/>
       <use xlink:href="#DejaVuSans-34" transform="translate(128.203125 38.965625) scale(0.7)"/>
      </g>
     </g>
    </g>
    <g id="ytick_3">
     <g id="line2d_21">
      <g>
       <use xlink:href="#m270b790c3a" x="29.306875" y="19.225497" style="stroke: #000000; stroke-width: 0.8"/>
      </g>
     </g>
     <g id="line2d_22">
      <g>
       <use xlink:href="#mcfc9c8f727" x="364.106875" y="19.225497" style="stroke: #000000; stroke-width: 0.8"/>
      </g>
     </g>
     <g id="text_12">
      <!-- $\mathdefault{10^{6}}$ -->
      <g transform="translate(17.006875 21.125107) scale(0.05 -0.05)">
       <use xlink:href="#DejaVuSans-31" transform="translate(0 0.765625)"/>
       <use xlink:href="#DejaVuSans-30" transform="translate(63.623047 0.765625)"/>
       <use xlink:href="#DejaVuSans-36" transform="translate(128.203125 39.046875) scale(0.7)"/>
      </g>
     </g>
    </g>
    <g id="text_13">
     <!-- Intensity [a.u.] -->
     <g transform="translate(11.759062 56.918437) rotate(-90) scale(0.06 -0.06)">
      <defs>
       <path id="DejaVuSans-49" d="M 628 4666 
L 1259 4666 
L 1259 0 
L 628 0 
L 628 4666 
z
" transform="scale(0.015625)"/>
       <path id="DejaVuSans-6e" d="M 3513 2113 
L 3513 0 
L 2938 0 
L 2938 2094 
Q 2938 2591 2744 2837 
Q 2550 3084 2163 3084 
Q 1697 3084 1428 2787 
Q 1159 2491 1159 1978 
L 1159 0 
L 581 0 
L 581 3500 
L 1159 3500 
L 1159 2956 
Q 1366 3272 1645 3428 
Q 1925 3584 2291 3584 
Q 2894 3584 3203 3211 
Q 3513 2838 3513 2113 
z
" transform="scale(0.015625)"/>
       <path id="DejaVuSans-74" d="M 1172 4494 
L 1172 3500 
L 2356 3500 
L 2356 3053 
L 1172 3053 
L 1172 1153 
Q 1172 725 1289 603 
Q 1406 481 1766 481 
L 2356 481 
L 2356 0 
L 1766 0 
Q 1100 0 847 248 
Q 594 497 594 1153 
L 594 3053 
L 172 3053 
L 172 3500 
L 594 3500 
L 594 4494 
L 1172 4494 
z
" transform="scale(0.015625)"/>
       <path id="DejaVuSans-65" d="M 3597 1894 
L 3597 1613 
L 953 1613 
Q 991 1019 1311 708 
Q 1631 397 2203 397 
Q 2534 397 2845 478 
Q 3156 559 3463 722 
L 3463 178 
Q 3153 47 2828 -22 
Q 2503 -91 2169 -91 
Q 1331 -91 842 396 
Q 353 884 353 1716 
Q 353 2575 817 3079 
Q 1281 3584 2069 3584 
Q 2775 3584 3186 3129 
Q 3597 2675 3597 1894 
z
M 3022 2063 
Q 3016 2534 2758 2815 
Q 2500 3097 2075 3097 
Q 1594 3097 1305 2825 
Q 1016 2553 972 2059 
L 3022 2063 
z
" transform="scale(0.015625)"/>
       <path id="DejaVuSans-73" d="M 2834 3397 
L 2834 2853 
Q 2591 2978 2328 3040 
Q 2066 3103 1784 3103 
Q 1356 3103 1142 2972 
Q 928 2841 928 2578 
Q 928 2378 1081 2264 
Q 1234 2150 1697 2047 
L 1894 2003 
Q 2506 1872 2764 1633 
Q 3022 1394 3022 966 
Q 3022 478 2636 193 
Q 2250 -91 1575 -91 
Q 1294 -91 989 -36 
Q 684 19 347 128 
L 347 722 
Q 666 556 975 473 
Q 1284 391 1588 391 
Q 1994 391 2212 530 
Q 2431 669 2431 922 
Q 2431 1156 2273 1281 
Q 2116 1406 1581 1522 
L 1381 1569 
Q 847 1681 609 1914 
Q 372 2147 372 2553 
Q 372 3047 722 3315 
Q 1072 3584 1716 3584 
Q 2034 3584 2315 3537 
Q 2597 3491 2834 3397 
z
" transform="scale(0.015625)"/>
       <path id="DejaVuSans-69" d="M 603 3500 
L 1178 3500 
L 1178 0 
L 603 0 
L 603 3500 
z
M 603 4863 
L 1178 4863 
L 1178 4134 
L 603 4134 
L 603 4863 
z
" transform="scale(0.015625)"/>
       <path id="DejaVuSans-79" d="M 2059 -325 
Q 1816 -950 1584 -1140 
Q 1353 -1331 966 -1331 
L 506 -1331 
L 506 -850 
L 844 -850 
Q 1081 -850 1212 -737 
Q 1344 -625 1503 -206 
L 1606 56 
L 191 3500 
L 800 3500 
L 1894 763 
L 2988 3500 
L 3597 3500 
L 2059 -325 
z
" transform="scale(0.015625)"/>
       <path id="DejaVuSans-20" transform="scale(0.015625)"/>
       <path id="DejaVuSans-5b" d="M 550 4863 
L 1875 4863 
L 1875 4416 
L 1125 4416 
L 1125 -397 
L 1875 -397 
L 1875 -844 
L 550 -844 
L 550 4863 
z
" transform="scale(0.015625)"/>
       <path id="DejaVuSans-61" d="M 2194 1759 
Q 1497 1759 1228 1600 
Q 959 1441 959 1056 
Q 959 750 1161 570 
Q 1363 391 1709 391 
Q 2188 391 2477 730 
Q 2766 1069 2766 1631 
L 2766 1759 
L 2194 1759 
z
M 3341 1997 
L 3341 0 
L 2766 0 
L 2766 531 
Q 2569 213 2275 61 
Q 1981 -91 1556 -91 
Q 1019 -91 701 211 
Q 384 513 384 1019 
Q 384 1609 779 1909 
Q 1175 2209 1959 2209 
L 2766 2209 
L 2766 2266 
Q 2766 2663 2505 2880 
Q 2244 3097 1772 3097 
Q 1472 3097 1187 3025 
Q 903 2953 641 2809 
L 641 3341 
Q 956 3463 1253 3523 
Q 1550 3584 1831 3584 
Q 2591 3584 2966 3190 
Q 3341 2797 3341 1997 
z
" transform="scale(0.015625)"/>
       <path id="DejaVuSans-2e" d="M 684 794 
L 1344 794 
L 1344 0 
L 684 0 
L 684 794 
z
" transform="scale(0.015625)"/>
       <path id="DejaVuSans-75" d="M 544 1381 
L 544 3500 
L 1119 3500 
L 1119 1403 
Q 1119 906 1312 657 
Q 1506 409 1894 409 
Q 2359 409 2629 706 
Q 2900 1003 2900 1516 
L 2900 3500 
L 3475 3500 
L 3475 0 
L 2900 0 
L 2900 538 
Q 2691 219 2414 64 
Q 2138 -91 1772 -91 
Q 1169 -91 856 284 
Q 544 659 544 1381 
z
M 1991 3584 
L 1991 3584 
z
" transform="scale(0.015625)"/>
       <path id="DejaVuSans-5d" d="M 1947 4863 
L 1947 -844 
L 622 -844 
L 622 -397 
L 1369 -397 
L 1369 4416 
L 622 4416 
L 622 4863 
L 1947 4863 
z
" transform="scale(0.015625)"/>
      </defs>
      <use xlink:href="#DejaVuSans-49"/>
      <use xlink:href="#DejaVuSans-6e" x="29.492188"/>
      <use xlink:href="#DejaVuSans-74" x="92.871094"/>
      <use xlink:href="#DejaVuSans-65" x="132.080078"/>
      <use xlink:href="#DejaVuSans-6e" x="193.603516"/>
      <use xlink:href="#DejaVuSans-73" x="256.982422"/>
      <use xlink:href="#DejaVuSans-69" x="309.082031"/>
      <use xlink:href="#DejaVuSans-74" x="336.865234"/>
      <use xlink:href="#DejaVuSans-79" x="376.074219"/>
      <use xlink:href="#DejaVuSans-20" x="435.253906"/>
      <use xlink:href="#DejaVuSans-5b" x="467.041016"/>
      <use xlink:href="#DejaVuSans-61" x="506.054688"/>
      <use xlink:href="#DejaVuSans-2e" x="567.333984"/>
      <use xlink:href="#DejaVuSans-75" x="599.121094"/>
      <use xlink:href="#DejaVuSans-2e" x="662.5"/>
      <use xlink:href="#DejaVuSans-5d" x="694.287109"/>
     </g>
    </g>
   </g>
   <g id="line2d_23">
    <path d="M 38.807956 57.368438 
L 39.712821 57.440725 
L 40.617686 56.597077 
L 41.522551 58.165149 
L 42.427416 56.714841 
L 44.237145 58.255286 
L 45.14201 57.368438 
L 46.046875 57.297554 
L 46.95174 56.372366 
L 47.856605 58.077183 
L 48.76147 58.077183 
L 49.666334 56.482993 
L 50.571199 56.714841 
L 51.476064 57.228021 
L 52.380929 56.597077 
L 53.285794 57.297554 
L 54.190659 56.372366 
L 55.095524 57.440725 
L 56.000389 57.666594 
L 56.905253 57.368438 
L 57.810118 56.836532 
L 60.524713 57.297554 
L 61.429578 57.027031 
L 62.334443 56.539589 
L 63.239307 57.092805 
L 64.144172 56.482993 
L 65.049037 56.77518 
L 65.953902 56.714841 
L 66.858767 57.159787 
L 67.763632 57.159787 
L 68.668497 56.482993 
L 69.573361 57.159787 
L 70.478226 56.77518 
L 71.383091 56.109635 
L 72.287956 56.836532 
L 73.192821 56.655484 
L 74.097686 56.212469 
L 75.002551 56.42726 
L 75.907416 56.898934 
L 76.81228 57.159787 
L 78.62201 57.991288 
L 79.526875 56.539589 
L 80.43174 56.96242 
L 81.336605 56.714841 
L 82.24147 57.907367 
L 84.051199 55.770945 
L 84.956064 56.109635 
L 85.860929 56.836532 
L 86.765794 56.318285 
L 87.670659 56.109635 
L 88.575524 56.482993 
L 89.480389 56.42726 
L 90.385253 56.212469 
L 92.194983 57.092805 
L 93.099848 56.655484 
L 94.004713 56.539589 
L 94.909578 56.655484 
L 95.814443 55.059482 
L 96.719307 56.109635 
L 97.624172 56.714841 
L 98.529037 55.67968 
L 99.433902 56.059284 
L 100.338767 56.16069 
L 101.243632 56.42726 
L 102.148497 55.503724 
L 103.053361 56.42726 
L 103.958226 56.059284 
L 104.863091 55.817447 
L 105.767956 55.912268 
L 106.672821 55.461029 
L 107.577686 57.159787 
L 108.482551 56.714841 
L 109.387416 55.912268 
L 110.29228 55.960618 
L 111.197145 56.539589 
L 112.10201 55.63489 
L 113.006875 55.214842 
L 113.91174 55.097707 
L 114.816605 55.418827 
L 115.72147 56.109635 
L 116.626334 56.318285 
L 117.531199 55.590642 
L 118.436064 56.009618 
L 119.340929 55.503724 
L 120.245794 55.295073 
L 121.150659 57.159787 
L 122.055524 55.912268 
L 122.960389 55.295073 
L 124.770118 54.529511 
L 125.674983 55.021654 
L 126.579848 54.663485 
L 127.484713 55.725027 
L 128.389578 55.021654 
L 130.199307 55.546924 
L 131.104172 55.546924 
L 132.009037 54.910466 
L 133.818767 54.663485 
L 134.723632 54.154783 
L 135.628497 55.021654 
L 136.533361 54.802565 
L 137.438226 54.802565 
L 138.343091 54.40028 
L 139.247956 55.33586 
L 140.152821 54.874143 
L 141.057686 54.984214 
L 141.962551 55.418827 
L 142.867416 54.464324 
L 143.77228 54.337341 
L 144.677145 53.788026 
L 145.58201 54.984214 
L 146.486875 54.767295 
L 147.39174 54.037961 
L 149.20147 54.095905 
L 150.106334 53.734735 
L 151.011199 53.734735 
L 151.916064 54.337341 
L 153.725794 53.708378 
L 154.630659 53.897001 
L 155.535524 53.504107 
L 156.440389 53.682211 
L 157.345253 53.263863 
L 158.250118 54.037961 
L 159.154983 53.217655 
L 160.059848 53.263863 
L 160.964713 53.604814 
L 161.869578 52.867649 
L 162.774443 53.126958 
L 163.679307 53.529025 
L 164.584172 53.656229 
L 165.489037 53.172025 
L 166.393902 52.93077 
L 169.108497 52.785151 
L 170.013361 52.491395 
L 170.918226 52.606077 
L 171.823091 51.982846 
L 172.727956 52.099269 
L 173.632821 52.343885 
L 174.537686 52.472627 
L 175.442551 52.453955 
L 176.347416 51.699484 
L 177.25228 52.30792 
L 178.157145 52.032288 
L 179.06201 52.272306 
L 179.966875 51.791515 
L 180.87174 52.082408 
L 181.776605 51.776015 
L 183.586334 51.684368 
L 184.491199 51.311848 
L 185.396064 51.479071 
L 186.300929 50.9491 
L 187.205794 51.165012 
L 188.110659 50.733604 
L 189.015524 50.998766 
L 189.920389 50.65312 
L 190.825253 50.768648 
L 191.730118 50.204262 
L 192.634983 50.596699 
L 194.444713 50.22443 
L 195.349578 49.777661 
L 196.254443 50.066122 
L 197.159307 50.214332 
L 198.064172 49.518659 
L 198.969037 49.552149 
L 201.683632 49.116592 
L 202.588497 49.124065 
L 204.398226 48.795236 
L 205.303091 48.795236 
L 207.112821 48.060845 
L 208.017686 48.191739 
L 210.73228 47.189705 
L 211.637145 47.269839 
L 212.54201 46.926423 
L 214.35174 46.813474 
L 215.256605 46.400773 
L 216.16147 46.120886 
L 217.066334 46.094695 
L 217.971199 45.693488 
L 223.400389 43.958479 
L 225.210118 43.237037 
L 227.019848 42.315501 
L 227.924713 41.844459 
L 228.829578 41.236213 
L 230.639307 39.287822 
L 231.544172 38.241589 
L 232.449037 36.967968 
L 233.353902 35.289777 
L 234.258767 33.886491 
L 236.068497 32.034114 
L 237.878226 29.724583 
L 239.687956 26.500915 
L 240.592821 23.231893 
L 241.497686 12.478936 
L 242.402551 9.72 
L 243.307416 12.697228 
L 244.21228 24.357833 
L 245.117145 28.003547 
L 246.02201 29.950621 
L 247.83174 32.96618 
L 251.451199 38.42885 
L 253.260929 40.194907 
L 255.070659 41.454663 
L 258.690118 43.409552 
L 259.594983 43.501371 
L 260.499848 44.220208 
L 261.404713 44.351373 
L 263.214443 45.005605 
L 264.119307 45.555829 
L 269.548497 46.785774 
L 270.453361 47.198522 
L 272.263091 47.684073 
L 274.072821 48.203346 
L 274.977686 48.303524 
L 275.882551 48.557082 
L 277.69228 48.499895 
L 278.597145 49.072075 
L 279.50201 49.199645 
L 280.406875 49.146575 
L 281.31174 49.444412 
L 282.216605 49.56057 
L 283.12147 50.194219 
L 284.026334 49.859086 
L 284.931199 50.432485 
L 285.836064 50.358309 
L 286.740929 50.443206 
L 287.645794 50.675935 
L 288.550659 50.630447 
L 289.455524 50.986286 
L 290.360389 50.421796 
L 291.265253 51.061814 
L 293.979848 51.023855 
L 294.884713 51.46484 
L 295.789578 51.339192 
L 296.694443 51.493358 
L 297.599307 51.822715 
L 298.504172 51.999252 
L 299.409037 51.594966 
L 300.313902 52.254629 
L 301.218767 52.219528 
L 302.123632 52.435378 
L 303.028497 52.51026 
L 303.933361 51.854184 
L 304.838226 52.548286 
L 305.743091 52.805601 
L 306.647956 52.664797 
L 307.552821 53.310664 
L 308.457686 53.43036 
L 309.362551 53.382009 
L 310.267416 52.826167 
L 311.17228 53.287189 
L 312.98201 53.310664 
L 313.886875 53.016665 
L 314.79174 53.126958 
L 315.696605 53.682211 
L 316.60147 53.382009 
L 317.506334 54.306273 
L 318.411199 53.708378 
L 319.316064 53.579376 
L 320.220929 53.814967 
L 322.030659 54.464324 
L 322.935524 53.952734 
L 323.840389 54.095905 
L 324.745253 54.984214 
L 325.650118 54.910466 
L 326.554983 55.377108 
L 327.459848 54.595884 
L 328.364713 54.464324 
L 329.269578 55.725027 
L 330.174443 55.725027 
L 331.079307 54.802565 
L 331.984172 55.33586 
L 332.889037 54.732363 
L 333.793902 55.097707 
L 334.698767 54.984214 
L 335.603632 55.097707 
L 336.508497 55.590642 
L 337.413361 54.947154 
L 338.318226 55.418827 
L 339.223091 55.67968 
L 340.127956 55.136336 
L 341.032821 55.377108 
L 341.937686 55.214842 
L 342.842551 56.009618 
L 343.747416 55.254737 
L 344.65228 55.67968 
L 346.46201 55.175378 
L 347.366875 55.960618 
L 348.27174 55.770945 
L 349.176605 55.960618 
L 350.08147 56.482993 
L 351.891199 55.461029 
L 353.700929 56.212469 
L 354.605794 55.503724 
L 354.605794 55.503724 
" clip-path="url(#pb0497cac8b)" style="fill: none; stroke: #1f77b4; stroke-width: 0.5; stroke-linecap: square"/>
   </g>
   <g id="line2d_24">
    <path d="M 38.807956 57.991288 
L 39.712821 58.347706 
L 40.617686 59.069848 
L 41.522551 58.539876 
L 42.427416 58.165149 
L 43.33228 57.991288 
L 44.237145 57.368438 
L 45.14201 58.639893 
L 46.95174 58.165149 
L 47.856605 57.991288 
L 48.76147 58.848544 
L 49.666334 58.347706 
L 50.571199 58.539876 
L 52.380929 58.077183 
L 53.285794 57.589741 
L 54.190659 58.165149 
L 55.095524 58.539876 
L 56.000389 57.297554 
L 56.905253 58.165149 
L 57.810118 57.514473 
L 59.619848 58.742728 
L 60.524713 58.442527 
L 61.429578 58.442527 
L 62.334443 58.077183 
L 63.239307 57.440725 
L 64.144172 57.7451 
L 65.049037 58.539876 
L 65.953902 57.228021 
L 66.858767 57.666594 
L 67.763632 57.228021 
L 68.668497 57.907367 
L 69.573361 58.165149 
L 70.478226 57.297554 
L 72.287956 58.077183 
L 73.192821 57.440725 
L 74.097686 57.368438 
L 75.002551 58.255286 
L 75.907416 58.442527 
L 76.81228 57.440725 
L 77.717145 58.539876 
L 78.62201 57.440725 
L 79.526875 57.228021 
L 80.43174 57.159787 
L 81.336605 58.255286 
L 82.24147 58.255286 
L 83.146334 59.185743 
L 84.051199 58.742728 
L 84.956064 58.742728 
L 85.860929 56.42726 
L 86.765794 58.848544 
L 87.670659 59.069848 
L 88.575524 58.165149 
L 89.480389 56.96242 
L 90.385253 57.907367 
L 91.290118 56.714841 
L 92.194983 57.666594 
L 93.099848 57.825332 
L 94.004713 56.898934 
L 94.909578 57.159787 
L 95.814443 56.714841 
L 97.624172 57.514473 
L 98.529037 57.297554 
L 99.433902 57.368438 
L 100.338767 57.825332 
L 101.243632 57.666594 
L 102.148497 57.991288 
L 103.053361 58.539876 
L 103.958226 57.907367 
L 104.863091 57.991288 
L 105.767956 57.228021 
L 106.672821 57.159787 
L 108.482551 56.77518 
L 109.387416 57.092805 
L 110.29228 57.228021 
L 112.10201 56.318285 
L 113.006875 56.655484 
L 113.91174 57.228021 
L 114.816605 56.655484 
L 115.72147 56.597077 
L 116.626334 56.836532 
L 117.531199 56.372366 
L 118.436064 56.264994 
L 119.340929 56.539589 
L 120.245794 57.159787 
L 122.055524 56.836532 
L 124.770118 57.297554 
L 126.579848 56.372366 
L 127.484713 56.212469 
L 128.389578 55.86455 
L 129.294443 56.372366 
L 130.199307 56.16069 
L 131.104172 55.461029 
L 132.009037 55.960618 
L 132.913902 56.597077 
L 133.818767 56.539589 
L 134.723632 56.77518 
L 135.628497 55.960618 
L 136.533361 55.67968 
L 139.247956 56.539589 
L 140.152821 56.597077 
L 141.057686 56.212469 
L 141.962551 56.009618 
L 144.677145 56.109635 
L 145.58201 55.86455 
L 146.486875 56.059284 
L 147.39174 55.817447 
L 148.296605 55.86455 
L 149.20147 55.67968 
L 150.106334 55.86455 
L 151.011199 55.546924 
L 151.916064 55.86455 
L 152.820929 55.63489 
L 153.725794 56.109635 
L 154.630659 55.214842 
L 155.535524 56.009618 
L 156.440389 55.214842 
L 159.154983 55.63489 
L 160.059848 55.67968 
L 160.964713 55.136336 
L 161.869578 54.838179 
L 162.774443 54.947154 
L 163.679307 55.295073 
L 164.584172 54.529511 
L 165.489037 54.496772 
L 166.393902 54.275468 
L 167.298767 55.418827 
L 168.203632 53.842107 
L 169.108497 54.802565 
L 170.013361 54.432162 
L 170.918226 54.337341 
L 171.823091 54.910466 
L 172.727956 54.874143 
L 173.632821 53.630431 
L 174.537686 54.697762 
L 175.442551 54.337341 
L 176.347416 54.464324 
L 177.25228 54.095905 
L 179.06201 53.869451 
L 179.966875 53.897001 
L 181.776605 54.244921 
L 182.68147 54.244921 
L 183.586334 53.682211 
L 184.491199 54.275468 
L 185.396064 53.529025 
L 186.300929 53.194769 
L 187.205794 53.038459 
L 188.110659 52.645119 
L 189.015524 52.785151 
L 189.920389 52.625545 
L 190.825253 52.645119 
L 191.730118 52.435378 
L 192.634983 52.625545 
L 193.539848 52.625545 
L 194.444713 52.065625 
L 197.159307 51.669315 
L 198.064172 51.901903 
L 198.969037 51.609715 
L 199.873902 51.507702 
L 200.778767 51.217726 
L 201.683632 51.049117 
L 202.588497 51.669315 
L 203.493361 51.284708 
L 206.207956 50.780405 
L 207.112821 51.049117 
L 208.017686 50.641766 
L 209.827416 50.234556 
L 210.73228 50.10506 
L 215.256605 48.795236 
L 216.16147 48.38814 
L 217.971199 47.98341 
L 218.876064 47.407432 
L 220.685794 46.893794 
L 221.590659 46.605044 
L 222.495524 45.910228 
L 224.305253 45.186735 
L 227.019848 43.471037 
L 227.924713 42.787254 
L 228.829578 41.908143 
L 229.734443 40.438066 
L 231.544172 35.812528 
L 236.068497 28.315662 
L 239.687956 22.910471 
L 240.592821 20.392636 
L 241.497686 13.608439 
L 242.402551 12.107345 
L 243.307416 19.691102 
L 244.21228 24.191711 
L 245.117145 26.4527 
L 248.736605 33.971732 
L 249.64147 36.430241 
L 250.546334 39.586839 
L 251.451199 41.712467 
L 252.356064 43.100927 
L 254.165794 44.703747 
L 255.070659 45.347961 
L 255.975524 45.711066 
L 258.690118 47.176519 
L 259.594983 47.347171 
L 260.499848 47.714451 
L 261.404713 47.59935 
L 262.309578 48.139959 
L 263.214443 48.449803 
L 264.119307 47.967028 
L 265.024172 48.78159 
L 265.929037 49.428115 
L 266.833902 49.184403 
L 267.738767 49.139056 
L 268.643632 49.680547 
L 269.548497 49.477224 
L 270.453361 49.895866 
L 271.358226 50.085539 
L 273.167956 50.607913 
L 274.072821 51.204476 
L 274.977686 51.151952 
L 275.882551 51.450663 
L 276.787416 51.178119 
L 277.69228 51.776015 
L 278.597145 51.854184 
L 279.50201 52.491395 
L 280.406875 52.785151 
L 281.31174 52.491395 
L 282.216605 52.744591 
L 283.12147 52.764814 
L 284.026334 53.08244 
L 284.931199 53.08244 
L 285.836064 53.217655 
L 286.740929 53.479359 
L 287.645794 53.263863 
L 288.550659 53.897001 
L 289.455524 53.814967 
L 290.360389 53.980922 
L 291.265253 54.368675 
L 292.170118 54.595884 
L 293.074983 53.897001 
L 294.884713 54.095905 
L 295.789578 54.732363 
L 296.694443 54.095905 
L 297.599307 55.214842 
L 298.504172 54.910466 
L 299.409037 54.464324 
L 300.313902 54.874143 
L 302.123632 54.838179 
L 303.028497 55.418827 
L 304.838226 55.33586 
L 305.743091 55.059482 
L 306.647956 56.212469 
L 307.552821 55.503724 
L 308.457686 55.021654 
L 309.362551 55.86455 
L 310.267416 55.418827 
L 311.17228 55.817447 
L 312.077145 56.597077 
L 312.98201 57.027031 
L 313.886875 55.725027 
L 314.79174 57.027031 
L 315.696605 56.482993 
L 316.60147 56.597077 
L 317.506334 57.228021 
L 318.411199 56.836532 
L 319.316064 57.666594 
L 320.220929 56.77518 
L 321.125794 56.059284 
L 322.030659 56.714841 
L 322.935524 56.318285 
L 323.840389 57.092805 
L 324.745253 57.027031 
L 325.650118 56.42726 
L 327.459848 56.597077 
L 328.364713 56.898934 
L 329.269578 56.898934 
L 330.174443 57.092805 
L 331.079307 56.655484 
L 331.984172 58.077183 
L 332.889037 57.589741 
L 333.793902 56.16069 
L 334.698767 55.960618 
L 335.603632 56.714841 
L 336.508497 58.347706 
L 337.413361 58.255286 
L 338.318226 57.825332 
L 339.223091 58.539876 
L 340.127956 58.539876 
L 341.032821 56.77518 
L 341.937686 56.42726 
L 342.842551 57.907367 
L 343.747416 57.228021 
L 345.557145 57.907367 
L 346.46201 58.165149 
L 347.366875 58.639893 
L 348.27174 57.666594 
L 349.176605 57.7451 
L 350.08147 58.742728 
L 350.986334 57.092805 
L 351.891199 57.589741 
L 352.796064 57.092805 
L 353.700929 58.077183 
L 354.605794 57.7451 
L 354.605794 57.7451 
" clip-path="url(#pb0497cac8b)" style="fill: none; stroke: #ff7f0e; stroke-width: 0.5; stroke-linecap: square"/>
   </g>
   <g id="line2d_25">
    <path d="M 38.807956 56.655484 
L 39.712821 58.077183 
L 40.617686 57.297554 
L 42.427416 57.666594 
L 43.33228 57.514473 
L 44.237145 58.957519 
L 45.14201 57.514473 
L 46.046875 57.991288 
L 46.95174 58.255286 
L 47.856605 57.666594 
L 48.76147 58.442527 
L 49.666334 58.347706 
L 50.571199 57.440725 
L 51.476064 58.255286 
L 54.190659 58.165149 
L 55.095524 57.666594 
L 56.000389 57.825332 
L 56.905253 58.539876 
L 57.810118 56.898934 
L 58.714983 57.666594 
L 59.619848 57.228021 
L 61.429578 57.589741 
L 62.334443 58.347706 
L 63.239307 57.440725 
L 64.144172 56.009618 
L 65.049037 57.440725 
L 65.953902 57.027031 
L 66.858767 58.165149 
L 67.763632 57.228021 
L 68.668497 57.092805 
L 69.573361 57.092805 
L 70.478226 57.514473 
L 71.383091 57.514473 
L 72.287956 58.255286 
L 73.192821 58.442527 
L 74.097686 56.96242 
L 75.002551 57.991288 
L 75.907416 56.597077 
L 76.81228 57.027031 
L 78.62201 58.442527 
L 79.526875 56.714841 
L 80.43174 56.655484 
L 82.24147 57.991288 
L 83.146334 56.714841 
L 84.051199 57.666594 
L 84.956064 57.027031 
L 85.860929 57.368438 
L 86.765794 56.372366 
L 87.670659 58.165149 
L 88.575524 57.159787 
L 89.480389 57.440725 
L 90.385253 58.077183 
L 91.290118 56.96242 
L 92.194983 57.368438 
L 94.004713 57.589741 
L 94.909578 57.297554 
L 95.814443 58.165149 
L 96.719307 57.228021 
L 97.624172 56.836532 
L 98.529037 56.96242 
L 99.433902 57.991288 
L 100.338767 57.825332 
L 102.148497 56.655484 
L 103.053361 57.297554 
L 103.958226 55.725027 
L 104.863091 57.159787 
L 105.767956 57.589741 
L 106.672821 57.368438 
L 107.577686 56.109635 
L 108.482551 56.42726 
L 109.387416 57.159787 
L 110.29228 56.597077 
L 111.197145 56.714841 
L 112.10201 56.539589 
L 113.006875 57.159787 
L 113.91174 56.059284 
L 114.816605 57.991288 
L 115.72147 56.16069 
L 116.626334 56.597077 
L 117.531199 58.077183 
L 118.436064 57.027031 
L 119.340929 57.228021 
L 120.245794 57.228021 
L 121.150659 55.770945 
L 122.055524 56.898934 
L 122.960389 57.092805 
L 123.865253 57.027031 
L 124.770118 56.009618 
L 125.674983 56.318285 
L 126.579848 56.96242 
L 127.484713 56.42726 
L 128.389578 56.16069 
L 129.294443 56.655484 
L 130.199307 55.817447 
L 131.104172 56.597077 
L 132.009037 56.597077 
L 132.913902 56.264994 
L 133.818767 56.836532 
L 134.723632 55.86455 
L 135.628497 56.372366 
L 136.533361 56.264994 
L 137.438226 55.590642 
L 138.343091 56.16069 
L 139.247956 55.63489 
L 140.152821 55.590642 
L 141.057686 55.175378 
L 141.962551 55.912268 
L 142.867416 56.109635 
L 143.77228 56.42726 
L 144.677145 55.503724 
L 145.58201 56.059284 
L 146.486875 55.86455 
L 147.39174 55.912268 
L 148.296605 55.295073 
L 149.20147 56.059284 
L 150.106334 56.655484 
L 151.011199 56.318285 
L 152.820929 56.212469 
L 153.725794 55.770945 
L 154.630659 55.63489 
L 155.535524 55.254737 
L 156.440389 55.770945 
L 157.345253 55.725027 
L 159.154983 54.874143 
L 160.059848 55.136336 
L 161.869578 55.021654 
L 163.679307 54.40028 
L 164.584172 55.214842 
L 165.489037 54.432162 
L 166.393902 55.175378 
L 167.298767 54.767295 
L 168.203632 54.629528 
L 169.108497 54.306273 
L 170.013361 55.254737 
L 171.823091 54.529511 
L 172.727956 54.562547 
L 173.632821 54.40028 
L 174.537686 54.464324 
L 175.442551 54.184582 
L 176.347416 54.802565 
L 177.25228 53.734735 
L 178.157145 54.275468 
L 179.06201 54.562547 
L 180.87174 53.924761 
L 181.776605 54.214627 
L 182.68147 54.275468 
L 183.586334 54.154783 
L 185.396064 53.382009 
L 186.300929 52.973465 
L 187.205794 52.93077 
L 188.110659 53.172025 
L 189.015524 52.645119 
L 189.920389 52.645119 
L 190.825253 52.398505 
L 191.730118 52.867649 
L 192.634983 51.870021 
L 194.444713 52.529223 
L 195.349578 51.854184 
L 196.254443 52.272306 
L 197.159307 51.791515 
L 198.969037 52.398505 
L 199.873902 51.901903 
L 200.778767 52.015733 
L 201.683632 51.982846 
L 202.588497 51.624524 
L 203.493361 52.343885 
L 204.398226 51.966513 
L 205.303091 52.048918 
L 206.207956 51.271213 
L 207.112821 51.580277 
L 208.017686 50.85175 
L 209.827416 50.541136 
L 210.73228 50.464742 
L 211.637145 49.886636 
L 213.446875 49.671845 
L 214.35174 49.109135 
L 215.256605 48.850337 
L 216.16147 48.122861 
L 217.971199 47.531025 
L 218.876064 47.421481 
L 219.780929 46.793667 
L 220.685794 46.700062 
L 221.590659 46.153892 
L 225.210118 44.846918 
L 227.924713 43.755284 
L 228.829578 43.073733 
L 229.734443 42.642512 
L 230.639307 41.865905 
L 231.544172 40.757833 
L 232.449037 38.90888 
L 235.163632 31.439706 
L 236.068497 29.715319 
L 238.783091 25.487547 
L 239.687956 23.859248 
L 240.592821 21.742622 
L 241.497686 15.741438 
L 242.402551 11.448423 
L 244.21228 21.822784 
L 245.117145 24.475265 
L 246.02201 26.41677 
L 247.83174 29.38936 
L 248.736605 30.957604 
L 249.64147 32.796815 
L 250.546334 35.745071 
L 251.451199 39.834813 
L 252.356064 42.393957 
L 253.260929 43.710871 
L 255.070659 45.292551 
L 255.975524 45.87013 
L 256.880389 46.700062 
L 260.499848 48.267852 
L 261.404713 48.363763 
L 264.119307 49.101693 
L 265.024172 49.199645 
L 265.929037 49.124065 
L 266.833902 49.535366 
L 267.738767 49.527003 
L 269.548497 49.822673 
L 271.358226 50.056452 
L 272.263091 49.961136 
L 273.167956 50.519146 
L 274.072821 50.22443 
L 274.977686 50.453958 
L 275.882551 50.839762 
L 278.597145 51.271213 
L 280.406875 51.76058 
L 281.31174 51.854184 
L 283.12147 52.785151 
L 284.026334 52.704476 
L 284.931199 52.846849 
L 286.740929 53.656229 
L 287.645794 53.382009 
L 288.550659 53.952734 
L 289.455524 54.095905 
L 290.360389 53.842107 
L 291.265253 54.663485 
L 292.170118 54.697762 
L 293.074983 53.897001 
L 294.884713 55.254737 
L 295.789578 53.869451 
L 296.694443 54.562547 
L 297.599307 54.529511 
L 298.504172 54.214627 
L 299.409037 55.214842 
L 300.313902 54.432162 
L 301.218767 54.984214 
L 302.123632 54.529511 
L 303.028497 55.295073 
L 303.933361 54.838179 
L 304.838226 55.097707 
L 305.743091 55.725027 
L 306.647956 54.947154 
L 307.552821 54.910466 
L 308.457686 55.461029 
L 309.362551 56.372366 
L 310.267416 56.264994 
L 311.17228 56.009618 
L 312.077145 56.059284 
L 312.98201 55.63489 
L 313.886875 56.42726 
L 314.79174 56.597077 
L 315.696605 56.96242 
L 316.60147 55.912268 
L 317.506334 56.482993 
L 318.411199 56.109635 
L 320.220929 56.655484 
L 321.125794 56.059284 
L 322.030659 56.655484 
L 322.935524 56.898934 
L 323.840389 56.539589 
L 324.745253 55.770945 
L 325.650118 56.109635 
L 327.459848 57.514473 
L 328.364713 56.42726 
L 329.269578 56.96242 
L 330.174443 57.159787 
L 331.079307 56.597077 
L 331.984172 56.372366 
L 332.889037 56.009618 
L 333.793902 56.16069 
L 334.698767 57.297554 
L 335.603632 57.297554 
L 336.508497 57.092805 
L 337.413361 57.027031 
L 338.318226 57.7451 
L 339.223091 57.440725 
L 341.032821 57.228021 
L 341.937686 56.212469 
L 342.842551 57.589741 
L 343.747416 57.368438 
L 344.65228 56.96242 
L 345.557145 57.027031 
L 346.46201 58.077183 
L 347.366875 56.898934 
L 348.27174 56.898934 
L 349.176605 57.297554 
L 350.08147 58.347706 
L 350.986334 57.825332 
L 351.891199 58.347706 
L 352.796064 57.368438 
L 353.700929 57.440725 
L 354.605794 57.825332 
L 354.605794 57.825332 
" clip-path="url(#pb0497cac8b)" style="fill: none; stroke: #2ca02c; stroke-width: 0.5; stroke-linecap: square"/>
   </g>
   <g id="line2d_26">
    <path d="M 38.807956 57.589741 
L 39.712821 58.442527 
L 40.617686 58.957519 
L 42.427416 58.742728 
L 43.33228 58.255286 
L 44.237145 60.12 
L 45.14201 58.848544 
L 46.046875 58.165149 
L 46.95174 57.825332 
L 47.856605 58.848544 
L 48.76147 58.848544 
L 49.666334 58.165149 
L 50.571199 58.639893 
L 51.476064 58.442527 
L 52.380929 57.907367 
L 53.285794 58.165149 
L 54.190659 58.742728 
L 55.095524 56.77518 
L 56.000389 59.185743 
L 56.905253 58.539876 
L 57.810118 57.589741 
L 58.714983 58.539876 
L 59.619848 58.347706 
L 60.524713 57.7451 
L 61.429578 58.539876 
L 62.334443 58.165149 
L 63.239307 58.539876 
L 64.144172 58.742728 
L 65.049037 58.077183 
L 65.953902 58.165149 
L 66.858767 57.825332 
L 67.763632 57.092805 
L 68.668497 59.069848 
L 69.573361 58.742728 
L 70.478226 57.589741 
L 71.383091 57.7451 
L 72.287956 57.589741 
L 73.192821 58.347706 
L 74.097686 58.347706 
L 75.002551 57.991288 
L 75.907416 57.092805 
L 76.81228 58.165149 
L 77.717145 57.666594 
L 78.62201 57.666594 
L 79.526875 58.165149 
L 80.43174 57.825332 
L 81.336605 58.347706 
L 82.24147 58.442527 
L 83.146334 57.907367 
L 84.051199 57.991288 
L 84.956064 57.027031 
L 85.860929 58.255286 
L 86.765794 58.077183 
L 87.670659 58.442527 
L 88.575524 57.7451 
L 89.480389 57.440725 
L 90.385253 58.255286 
L 91.290118 57.514473 
L 92.194983 58.077183 
L 93.099848 57.825332 
L 94.004713 57.297554 
L 94.909578 58.639893 
L 95.814443 57.666594 
L 96.719307 57.368438 
L 97.624172 56.77518 
L 98.529037 56.597077 
L 99.433902 57.092805 
L 101.243632 57.228021 
L 102.148497 57.7451 
L 103.053361 56.264994 
L 103.958226 56.597077 
L 104.863091 56.714841 
L 105.767956 57.589741 
L 106.672821 57.368438 
L 108.482551 56.77518 
L 109.387416 57.514473 
L 110.29228 56.372366 
L 111.197145 57.440725 
L 113.91174 57.907367 
L 114.816605 56.372366 
L 115.72147 56.539589 
L 117.531199 58.255286 
L 118.436064 56.714841 
L 119.340929 57.159787 
L 120.245794 57.440725 
L 121.150659 56.96242 
L 122.055524 57.092805 
L 122.960389 55.960618 
L 123.865253 55.770945 
L 124.770118 55.86455 
L 125.674983 56.264994 
L 126.579848 55.503724 
L 127.484713 55.503724 
L 128.389578 55.295073 
L 129.294443 54.838179 
L 130.199307 55.461029 
L 131.104172 54.368675 
L 132.009037 55.059482 
L 132.913902 55.912268 
L 133.818767 55.097707 
L 134.723632 54.984214 
L 135.628497 54.464324 
L 136.533361 55.725027 
L 137.438226 54.663485 
L 138.343091 56.482993 
L 139.247956 55.63489 
L 140.152821 55.33586 
L 141.962551 55.503724 
L 142.867416 56.009618 
L 143.77228 55.175378 
L 144.677145 56.318285 
L 146.486875 55.33586 
L 147.39174 56.009618 
L 148.296605 55.021654 
L 149.20147 55.377108 
L 150.106334 54.595884 
L 151.011199 54.368675 
L 151.916064 54.947154 
L 152.820929 55.097707 
L 153.725794 55.461029 
L 155.535524 55.175378 
L 156.440389 55.418827 
L 157.345253 55.295073 
L 158.250118 55.503724 
L 159.154983 55.418827 
L 160.059848 55.63489 
L 161.869578 55.33586 
L 162.774443 54.874143 
L 163.679307 54.984214 
L 165.489037 54.562547 
L 166.393902 54.732363 
L 167.298767 54.464324 
L 168.203632 54.432162 
L 170.013361 53.479359 
L 170.918226 54.037961 
L 171.823091 53.842107 
L 172.727956 53.038459 
L 173.632821 53.240686 
L 174.537686 52.704476 
L 175.442551 53.104631 
L 176.347416 52.664797 
L 177.25228 53.263863 
L 178.157145 53.240686 
L 179.06201 53.529025 
L 180.87174 53.172025 
L 181.776605 53.924761 
L 182.68147 52.764814 
L 183.586334 54.00933 
L 184.491199 53.310664 
L 185.396064 53.554113 
L 186.300929 53.172025 
L 187.205794 53.682211 
L 188.110659 52.93077 
L 189.920389 52.805601 
L 190.825253 52.150325 
L 191.730118 52.237036 
L 192.634983 51.791515 
L 193.539848 51.999252 
L 194.444713 51.791515 
L 195.349578 51.074555 
L 197.159307 50.358309 
L 198.064172 50.443206 
L 198.969037 49.868246 
L 199.873902 50.443206 
L 200.778767 50.214332 
L 204.398226 50.214332 
L 205.303091 50.234556 
L 206.207956 50.400511 
L 207.112821 50.154324 
L 208.017686 50.389915 
L 208.922551 50.33739 
L 211.637145 49.750918 
L 212.54201 49.804601 
L 213.446875 49.527003 
L 214.35174 49.028093 
L 215.256605 48.720805 
L 216.16147 48.139959 
L 217.066334 47.81235 
L 223.400389 44.277261 
L 224.305253 43.904372 
L 225.210118 43.291118 
L 227.019848 42.575968 
L 230.639307 40.407028 
L 231.544172 39.720937 
L 232.449037 38.584313 
L 234.258767 35.259641 
L 235.163632 34.050453 
L 236.068497 33.065283 
L 237.878226 30.548606 
L 238.783091 29.056542 
L 239.687956 24.686929 
L 240.592821 17.724725 
L 241.497686 13.941071 
L 242.402551 13.231137 
L 243.307416 14.101103 
L 244.21228 22.415737 
L 245.117145 27.342626 
L 246.02201 30.604149 
L 246.926875 33.41608 
L 248.736605 36.52741 
L 250.546334 40.59879 
L 251.451199 42.134696 
L 252.356064 43.437802 
L 253.260929 44.510606 
L 255.070659 45.882421 
L 255.975524 46.052531 
L 256.880389 46.361957 
L 257.785253 46.42212 
L 258.690118 46.746564 
L 261.404713 46.885682 
L 262.309578 47.102683 
L 263.214443 47.030311 
L 264.119307 47.565028 
L 265.024172 47.306026 
L 265.929037 47.956148 
L 266.833902 47.679034 
L 267.738767 48.23839 
L 268.643632 48.226671 
L 269.548497 48.418841 
L 270.453361 49.072075 
L 271.358226 49.214951 
L 272.263091 49.689269 
L 273.167956 49.93302 
L 274.072821 50.464742 
L 274.977686 50.792199 
L 275.882551 51.311848 
L 277.69228 51.917948 
L 278.597145 52.219528 
L 279.50201 52.237036 
L 280.406875 52.51026 
L 281.31174 52.973465 
L 282.216605 53.263863 
L 283.12147 53.126958 
L 284.026334 53.263863 
L 285.836064 52.952055 
L 286.740929 53.016665 
L 287.645794 53.334291 
L 288.550659 52.625545 
L 289.455524 53.104631 
L 290.360389 52.398505 
L 291.265253 52.785151 
L 292.170118 52.952055 
L 293.074983 52.952055 
L 293.979848 53.263863 
L 294.884713 53.217655 
L 295.789578 53.630431 
L 296.694443 53.529025 
L 297.599307 53.708378 
L 298.504172 54.066818 
L 299.409037 53.952734 
L 300.313902 54.275468 
L 303.028497 54.838179 
L 304.838226 56.16069 
L 307.552821 55.175378 
L 308.457686 55.295073 
L 309.362551 56.16069 
L 310.267416 55.377108 
L 311.17228 56.318285 
L 312.077145 55.377108 
L 314.79174 55.175378 
L 315.696605 55.86455 
L 316.60147 55.503724 
L 317.506334 55.67968 
L 318.411199 56.16069 
L 320.220929 55.377108 
L 322.030659 55.725027 
L 322.935524 56.655484 
L 323.840389 56.059284 
L 324.745253 56.836532 
L 325.650118 56.212469 
L 326.554983 57.297554 
L 327.459848 56.482993 
L 328.364713 57.092805 
L 329.269578 57.027031 
L 330.174443 56.714841 
L 331.079307 56.714841 
L 331.984172 58.957519 
L 332.889037 56.655484 
L 333.793902 58.165149 
L 335.603632 58.077183 
L 336.508497 57.092805 
L 337.413361 57.589741 
L 338.318226 57.228021 
L 339.223091 56.372366 
L 340.127956 56.482993 
L 341.937686 57.589741 
L 342.842551 56.655484 
L 343.747416 57.368438 
L 344.65228 57.228021 
L 345.557145 57.368438 
L 346.46201 57.159787 
L 347.366875 58.639893 
L 348.27174 58.539876 
L 349.176605 57.589741 
L 350.08147 58.639893 
L 350.986334 58.165149 
L 351.891199 58.255286 
L 352.796064 57.589741 
L 353.700929 58.442527 
L 354.605794 57.907367 
L 354.605794 57.907367 
" clip-path="url(#pb0497cac8b)" style="fill: none; stroke: #d62728; stroke-width: 0.5; stroke-linecap: square"/>
   </g>
   <g id="patch_3">
    <path d="M 29.306875 62.64 
L 29.306875 7.2 
" style="fill: none; stroke: #000000; stroke-width: 0.5; stroke-linejoin: miter; stroke-linecap: square"/>
   </g>
   <g id="patch_4">
    <path d="M 364.106875 62.64 
L 364.106875 7.2 
" style="fill: none; stroke: #000000; stroke-width: 0.5; stroke-linejoin: miter; stroke-linecap: square"/>
   </g>
   <g id="patch_5">
    <path d="M 29.306875 62.64 
L 364.106875 62.64 
" style="fill: none; stroke: #000000; stroke-width: 0.5; stroke-linejoin: miter; stroke-linecap: square"/>
   </g>
   <g id="patch_6">
    <path d="M 29.306875 7.2 
L 364.106875 7.2 
" style="fill: none; stroke: #000000; stroke-width: 0.5; stroke-linejoin: miter; stroke-linecap: square"/>
   </g>
   <g id="legend_1">
    <g id="line2d_27">
     <path d="M 33.806875 13.749219 
L 38.806875 13.749219 
L 43.806875 13.749219 
" style="fill: none; stroke: #1f77b4; stroke-width: 0.5; stroke-linecap: square"/>
    </g>
    <g id="text_14">
     <!-- substrate -->
     <g transform="translate(47.806875 15.499219) scale(0.05 -0.05)">
      <defs>
       <path id="DejaVuSans-62" d="M 3116 1747 
Q 3116 2381 2855 2742 
Q 2594 3103 2138 3103 
Q 1681 3103 1420 2742 
Q 1159 2381 1159 1747 
Q 1159 1113 1420 752 
Q 1681 391 2138 391 
Q 2594 391 2855 752 
Q 3116 1113 3116 1747 
z
M 1159 2969 
Q 1341 3281 1617 3432 
Q 1894 3584 2278 3584 
Q 2916 3584 3314 3078 
Q 3713 2572 3713 1747 
Q 3713 922 3314 415 
Q 2916 -91 2278 -91 
Q 1894 -91 1617 61 
Q 1341 213 1159 525 
L 1159 0 
L 581 0 
L 581 4863 
L 1159 4863 
L 1159 2969 
z
" transform="scale(0.015625)"/>
       <path id="DejaVuSans-72" d="M 2631 2963 
Q 2534 3019 2420 3045 
Q 2306 3072 2169 3072 
Q 1681 3072 1420 2755 
Q 1159 2438 1159 1844 
L 1159 0 
L 581 0 
L 581 3500 
L 1159 3500 
L 1159 2956 
Q 1341 3275 1631 3429 
Q 1922 3584 2338 3584 
Q 2397 3584 2469 3576 
Q 2541 3569 2628 3553 
L 2631 2963 
z
" transform="scale(0.015625)"/>
      </defs>
      <use xlink:href="#DejaVuSans-73"/>
      <use xlink:href="#DejaVuSans-75" x="52.099609"/>
      <use xlink:href="#DejaVuSans-62" x="115.478516"/>
      <use xlink:href="#DejaVuSans-73" x="178.955078"/>
      <use xlink:href="#DejaVuSans-74" x="231.054688"/>
      <use xlink:href="#DejaVuSans-72" x="270.263672"/>
      <use xlink:href="#DejaVuSans-61" x="311.376953"/>
      <use xlink:href="#DejaVuSans-74" x="372.65625"/>
      <use xlink:href="#DejaVuSans-65" x="411.865234"/>
     </g>
    </g>
    <g id="line2d_28">
     <path d="M 33.806875 21.088281 
L 38.806875 21.088281 
L 43.806875 21.088281 
" style="fill: none; stroke: #ff7f0e; stroke-width: 0.5; stroke-linecap: square"/>
    </g>
    <g id="text_15">
     <!-- treated_213nm -->
     <g transform="translate(47.806875 22.838281) scale(0.05 -0.05)">
      <defs>
       <path id="DejaVuSans-64" d="M 2906 2969 
L 2906 4863 
L 3481 4863 
L 3481 0 
L 2906 0 
L 2906 525 
Q 2725 213 2448 61 
Q 2172 -91 1784 -91 
Q 1150 -91 751 415 
Q 353 922 353 1747 
Q 353 2572 751 3078 
Q 1150 3584 1784 3584 
Q 2172 3584 2448 3432 
Q 2725 3281 2906 2969 
z
M 947 1747 
Q 947 1113 1208 752 
Q 1469 391 1925 391 
Q 2381 391 2643 752 
Q 2906 1113 2906 1747 
Q 2906 2381 2643 2742 
Q 2381 3103 1925 3103 
Q 1469 3103 1208 2742 
Q 947 2381 947 1747 
z
" transform="scale(0.015625)"/>
       <path id="DejaVuSans-5f" d="M 3263 -1063 
L 3263 -1509 
L -63 -1509 
L -63 -1063 
L 3263 -1063 
z
" transform="scale(0.015625)"/>
       <path id="DejaVuSans-6d" d="M 3328 2828 
Q 3544 3216 3844 3400 
Q 4144 3584 4550 3584 
Q 5097 3584 5394 3201 
Q 5691 2819 5691 2113 
L 5691 0 
L 5113 0 
L 5113 2094 
Q 5113 2597 4934 2840 
Q 4756 3084 4391 3084 
Q 3944 3084 3684 2787 
Q 3425 2491 3425 1978 
L 3425 0 
L 2847 0 
L 2847 2094 
Q 2847 2600 2669 2842 
Q 2491 3084 2119 3084 
Q 1678 3084 1418 2786 
Q 1159 2488 1159 1978 
L 1159 0 
L 581 0 
L 581 3500 
L 1159 3500 
L 1159 2956 
Q 1356 3278 1631 3431 
Q 1906 3584 2284 3584 
Q 2666 3584 2933 3390 
Q 3200 3197 3328 2828 
z
" transform="scale(0.015625)"/>
      </defs>
      <use xlink:href="#DejaVuSans-74"/>
      <use xlink:href="#DejaVuSans-72" x="39.208984"/>
      <use xlink:href="#DejaVuSans-65" x="78.072266"/>
      <use xlink:href="#DejaVuSans-61" x="139.595703"/>
      <use xlink:href="#DejaVuSans-74" x="200.875"/>
      <use xlink:href="#DejaVuSans-65" x="240.083984"/>
      <use xlink:href="#DejaVuSans-64" x="301.607422"/>
      <use xlink:href="#DejaVuSans-5f" x="365.083984"/>
      <use xlink:href="#DejaVuSans-32" x="415.083984"/>
      <use xlink:href="#DejaVuSans-31" x="478.707031"/>
      <use xlink:href="#DejaVuSans-33" x="542.330078"/>
      <use xlink:href="#DejaVuSans-6e" x="605.953125"/>
      <use xlink:href="#DejaVuSans-6d" x="669.332031"/>
     </g>
    </g>
    <g id="line2d_29">
     <path d="M 33.806875 28.566406 
L 38.806875 28.566406 
L 43.806875 28.566406 
" style="fill: none; stroke: #2ca02c; stroke-width: 0.5; stroke-linecap: square"/>
    </g>
    <g id="text_16">
     <!-- treated_81nm -->
     <g transform="translate(47.806875 30.316406) scale(0.05 -0.05)">
      <use xlink:href="#DejaVuSans-74"/>
      <use xlink:href="#DejaVuSans-72" x="39.208984"/>
      <use xlink:href="#DejaVuSans-65" x="78.072266"/>
      <use xlink:href="#DejaVuSans-61" x="139.595703"/>
      <use xlink:href="#DejaVuSans-74" x="200.875"/>
      <use xlink:href="#DejaVuSans-65" x="240.083984"/>
      <use xlink:href="#DejaVuSans-64" x="301.607422"/>
      <use xlink:href="#DejaVuSans-5f" x="365.083984"/>
      <use xlink:href="#DejaVuSans-38" x="415.083984"/>
      <use xlink:href="#DejaVuSans-31" x="478.707031"/>
      <use xlink:href="#DejaVuSans-6e" x="542.330078"/>
      <use xlink:href="#DejaVuSans-6d" x="605.708984"/>
     </g>
    </g>
    <g id="line2d_30">
     <path d="M 33.806875 36.044531 
L 38.806875 36.044531 
L 43.806875 36.044531 
" style="fill: none; stroke: #d62728; stroke-width: 0.5; stroke-linecap: square"/>
    </g>
    <g id="text_17">
     <!-- untreated_162nm -->
     <g transform="translate(47.806875 37.794531) scale(0.05 -0.05)">
      <use xlink:href="#DejaVuSans-75"/>
      <use xlink:href="#DejaVuSans-6e" x="63.378906"/>
      <use xlink:href="#DejaVuSans-74" x="126.757812"/>
      <use xlink:href="#DejaVuSans-72" x="165.966797"/>
      <use xlink:href="#DejaVuSans-65" x="204.830078"/>
      <use xlink:href="#DejaVuSans-61" x="266.353516"/>
      <use xlink:href="#DejaVuSans-74" x="327.632812"/>
      <use xlink:href="#DejaVuSans-65" x="366.841797"/>
      <use xlink:href="#DejaVuSans-64" x="428.365234"/>
      <use xlink:href="#DejaVuSans-5f" x="491.841797"/>
      <use xlink:href="#DejaVuSans-31" x="541.841797"/>
      <use xlink:href="#DejaVuSans-36" x="605.464844"/>
      <use xlink:href="#DejaVuSans-32" x="669.087891"/>
      <use xlink:href="#DejaVuSans-6e" x="732.710938"/>
      <use xlink:href="#DejaVuSans-6d" x="796.089844"/>
     </g>
    </g>
   </g>
  </g>
 </g>
 <defs>
  <clipPath id="pb0497cac8b">
   <rect x="29.306875" y="7.2" width="334.8" height="55.44"/>
  </clipPath>
 </defs>
</svg>
